<svg width="20" height="20" viewBox="0 0 20 20" fill="none" xmlns="http://www.w3.org/2000/svg">
<path d="M17.25 17.25C18.7688 15.7312 16.7541 11.2541 12.75 7.25C8.74593 3.24594 4.26878 1.23122 2.75 2.75C1.23122 4.26878 3.24593 8.74594 7.25 12.75C11.2541 16.7541 15.7312 18.7688 17.25 17.25Z" stroke="white" stroke-width="1.3" stroke-linecap="round" stroke-linejoin="round"/>
<path d="M12.75 12.75C16.7541 8.74594 18.7688 4.26879 17.25 2.75C15.7312 1.23122 11.2541 3.24594 7.25 7.25C3.24593 11.2541 1.23122 15.7312 2.75 17.25C4.26878 18.7688 8.74593 16.7541 12.75 12.75Z" stroke="white" stroke-width="1.3" stroke-linecap="round" stroke-linejoin="round"/>
<path d="M10.4105 10.0001C10.4105 10.2269 10.2267 10.4108 9.99987 10.4108C9.77307 10.4108 9.58921 10.2269 9.58921 10.0001C9.58921 9.77331 9.77307 9.58945 9.99987 9.58945C10.2267 9.58945 10.4105 9.77331 10.4105 10.0001Z" fill="white" stroke="white" stroke-width="1.3"/>
</svg>
