<svg width="24" height="24" viewBox="0 0 24 24" fill="none" xmlns="http://www.w3.org/2000/svg">
<path d="M12.5112 15.3628V13.6135C9.83601 13.6135 8.54975 14.2449 7.42147 15.4266C7.16835 15.6914 6.71834 15.4885 6.75163 15.1252C7.00709 12.2447 8.35194 9.63659 12.5112 9.63659V7.88721C12.5119 7.81152 12.5346 7.73767 12.5766 7.67468C12.6186 7.61169 12.6779 7.56227 12.7475 7.53245C12.8171 7.50263 12.8938 7.49371 12.9684 7.50676C13.043 7.51981 13.1121 7.55428 13.1674 7.60596L17.1288 11.3438C17.167 11.3797 17.1974 11.4231 17.2182 11.4712C17.239 11.5193 17.2497 11.5712 17.2497 11.6236C17.2497 11.676 17.239 11.7279 17.2182 11.776C17.1974 11.8242 17.167 11.8675 17.1288 11.9035L13.1716 15.6427C13.1166 15.6957 13.0472 15.7313 12.9721 15.7452C12.8969 15.7591 12.8194 15.7506 12.749 15.7208C12.6787 15.691 12.6186 15.6412 12.5763 15.5775C12.534 15.5139 12.5114 15.4393 12.5112 15.3628Z" fill="#333C44"/>
<path d="M3 12C3 16.9688 7.03125 21 12 21C16.9688 21 21 16.9688 21 12C21 7.03125 16.9688 3 12 3C7.03125 3 3 7.03125 3 12Z" stroke="#333C44" stroke-width="1.3" stroke-miterlimit="10"/>
</svg>
