<svg width="24" height="24" viewBox="0 0 24 24" fill="none" xmlns="http://www.w3.org/2000/svg">
<path d="M19.5 3.75H4.5C3.25736 3.75 2.25 4.75736 2.25 6V19.5C2.25 20.7426 3.25736 21.75 4.5 21.75H19.5C20.7426 21.75 21.75 20.7426 21.75 19.5V6C21.75 4.75736 20.7426 3.75 19.5 3.75Z" stroke="#333C44" stroke-width="1.3" stroke-linejoin="round"/>
<path d="M6 2.25V3.75M18 2.25V3.75M21.75 7.5H2.25M14.25 12.1875L16.2853 10.6875H16.5V18.5625M7.21781 11.3873C7.42078 11.0442 7.98891 10.5 8.99203 10.5C10.178 10.5 11.2369 11.1459 11.2369 12.3703C11.2396 12.6073 11.1948 12.8425 11.1052 13.062C11.0156 13.2814 10.883 13.4807 10.7152 13.6481C10.2028 14.1727 9.42094 14.3733 8.99391 14.3733C9.47672 14.3733 10.3622 14.6002 10.9416 15.1927C11.3128 15.5709 11.4844 16.1044 11.4844 16.6959C11.4844 18.0028 10.3814 18.75 9.04125 18.75C7.90828 18.75 7.21313 17.9264 6.98438 17.5387" stroke="#333C44" stroke-width="1.3" stroke-linecap="round" stroke-linejoin="round"/>
</svg>
