<svg width="24" height="24" viewBox="0 0 24 24" fill="none" xmlns="http://www.w3.org/2000/svg">
<path d="M21.4 12C21.4 6.81039 17.1896 2.59998 12 2.59998C6.81039 2.59998 2.59998 6.81039 2.59998 12C2.59998 17.1896 6.81039 21.4 12 21.4C17.1896 21.4 21.4 17.1896 21.4 12Z" stroke="#333C44" stroke-width="1.2" stroke-miterlimit="10"/>
<path d="M16.6349 6.85593L10.8969 9.1511C10.5029 9.30869 10.1449 9.5447 9.84481 9.84481C9.5447 10.1449 9.30869 10.5029 9.1511 10.8969L6.85593 16.6349C6.82744 16.706 6.82046 16.784 6.83587 16.8591C6.85128 16.9342 6.88839 17.0032 6.9426 17.0574C6.99681 17.1116 7.06574 17.1487 7.14084 17.1641C7.21595 17.1795 7.29392 17.1725 7.3651 17.144L13.103 14.8489C13.4971 14.6913 13.855 14.4553 14.1551 14.1551C14.4553 13.855 14.6913 13.4971 14.8489 13.103L17.144 7.3651C17.1725 7.29392 17.1795 7.21595 17.1641 7.14084C17.1487 7.06574 17.1116 6.99681 17.0574 6.9426C17.0032 6.88839 16.9342 6.85128 16.8591 6.83587C16.784 6.82046 16.706 6.82744 16.6349 6.85593ZM12 13.175C11.7676 13.175 11.5404 13.1061 11.3472 12.977C11.154 12.8478 11.0034 12.6643 10.9144 12.4496C10.8255 12.2349 10.8022 11.9987 10.8476 11.7707C10.8929 11.5428 11.0048 11.3335 11.1691 11.1691C11.3335 11.0048 11.5428 10.8929 11.7707 10.8476C11.9987 10.8022 12.2349 10.8255 12.4496 10.9144C12.6643 11.0034 12.8478 11.154 12.977 11.3472C13.1061 11.5404 13.175 11.7676 13.175 12C13.175 12.3116 13.0512 12.6105 12.8308 12.8308C12.6105 13.0512 12.3116 13.175 12 13.175Z" fill="#333C44"/>
</svg>
