<svg width="24" height="24" viewBox="0 0 24 24" fill="none" xmlns="http://www.w3.org/2000/svg">
<path d="M7.87332 14.0667C7.87332 12.9253 6.94805 12 5.80666 12C4.66527 12 3.73999 12.9253 3.73999 14.0667V16.1333C3.73999 17.2747 4.66527 18.2 5.80666 18.2C6.94805 18.2 7.87332 17.2747 7.87332 16.1333V14.0667Z" stroke="#333C44" stroke-width="1.2" stroke-linecap="round" stroke-linejoin="round"/>
<path d="M20.2733 14.0667C20.2733 12.9253 19.348 12 18.2067 12C17.0653 12 16.14 12.9253 16.14 14.0667V16.1333C16.14 17.2747 17.0653 18.2 18.2067 18.2C19.348 18.2 20.2733 17.2747 20.2733 16.1333V14.0667Z" stroke="#333C44" stroke-width="1.2" stroke-linecap="round" stroke-linejoin="round"/>
<path d="M3.73999 14.0667V10.9667C3.73999 8.77422 4.61094 6.67156 6.16124 5.12126C7.71154 3.57096 9.8142 2.70001 12.0067 2.70001C14.1991 2.70001 16.3018 3.57096 17.8521 5.12126C19.4024 6.67156 20.2733 8.77422 20.2733 10.9667V14.0667" stroke="#333C44" stroke-width="1.2" stroke-linecap="round" stroke-linejoin="round"/>
<path d="M18.2067 18.2C18.2067 19.0222 17.5534 19.8107 16.3907 20.392C15.228 20.9734 13.651 21.3 12.0067 21.3" stroke="#333C44" stroke-width="1.2" stroke-linecap="round" stroke-linejoin="round"/>
</svg>
