<svg width="24" height="24" viewBox="0 0 24 24" fill="none" xmlns="http://www.w3.org/2000/svg">
<path d="M2.7998 9.83628C2.7998 11.4931 4.14295 12.8363 5.7998 12.8363H5.85392C6.66763 12.8363 7.40022 13.3293 7.70667 14.0831L10.3124 20.4926C10.4862 20.9201 10.9016 21.1996 11.363 21.1996V21.1996C12.7158 21.1996 13.7679 20.0231 13.6172 18.6787L13.3367 16.1761C13.237 15.287 13.9327 14.509 14.8273 14.509H17.5225C19.4215 14.509 20.8427 12.7669 20.4614 10.9066L19.2913 5.19784C19.0052 3.8022 17.777 2.80024 16.3524 2.80024H5.7998C4.14295 2.80024 2.7998 4.14339 2.7998 5.80024L2.7998 9.83628Z" stroke="#333C44" stroke-width="1.3"/>
<path d="M7.59991 13.6724L7.59991 2.79999" stroke="#333C44" stroke-width="1.3"/>
</svg>
