<svg width="24" height="24" viewBox="0 0 24 24" fill="none" xmlns="http://www.w3.org/2000/svg">
<path d="M19.8246 14.8884C19.7799 14.7274 19.8782 14.5039 19.9721 14.3429C20.0008 14.295 20.0322 14.2487 20.066 14.2043C20.8692 13.0109 21.2988 11.6053 21.3001 10.1668C21.3135 6.04444 17.8349 2.70001 13.5337 2.70001C9.78236 2.70001 6.65255 5.25304 5.91928 8.64218C5.80958 9.1445 5.75412 9.65715 5.75385 10.1713C5.75385 14.2982 9.09827 17.732 13.3995 17.732C14.0836 17.732 15.0047 17.5264 15.5099 17.3878C16.0152 17.2491 16.5159 17.0658 16.6456 17.0166C16.7785 16.9665 16.9194 16.9408 17.0614 16.9406C17.2164 16.94 17.3699 16.9704 17.513 17.0301L20.0481 17.9288C20.1037 17.9523 20.1625 17.9674 20.2225 17.9735C20.3174 17.9735 20.4084 17.9358 20.4754 17.8687C20.5425 17.8016 20.5802 17.7106 20.5802 17.6158C20.5771 17.5749 20.5696 17.5344 20.5578 17.4951L19.8246 14.8884Z" stroke="#333C44" stroke-width="1.2" stroke-miterlimit="10" stroke-linecap="round"/>
<path d="M3.52541 10.9269C2.93899 11.9805 2.65531 13.1756 2.70573 14.3803C2.75615 15.585 3.13871 16.7522 3.81112 17.753C3.9144 17.9091 3.97253 18.0298 3.95464 18.1107C3.93676 18.1917 3.42124 20.877 3.42124 20.877C3.40884 20.9399 3.41354 21.0049 3.43485 21.0653C3.45617 21.1257 3.49331 21.1793 3.5424 21.2204C3.60791 21.2726 3.68936 21.3007 3.77312 21.3C3.81787 21.3001 3.86217 21.291 3.90323 21.2732L6.41646 20.2895C6.58944 20.2213 6.7824 20.2245 6.953 20.2985C7.79984 20.6284 8.7361 20.835 9.6728 20.835C10.9298 20.8363 12.1647 20.5048 13.252 19.8742" stroke="#333C44" stroke-width="1.2" stroke-miterlimit="10" stroke-linecap="round"/>
</svg>
