<svg width="24" height="24" viewBox="0 0 24 24" fill="none" xmlns="http://www.w3.org/2000/svg">
<path d="M12.0035 12.0029V12.0154" stroke="#333C44" stroke-width="1.3" stroke-linecap="round" stroke-linejoin="round"/>
<path d="M15.2543 8.75201C16.1163 9.61429 16.6005 10.7836 16.6005 12.0029C16.6005 13.2221 16.1163 14.3915 15.2543 15.2537" stroke="#333C44" stroke-width="1.3" stroke-linecap="round" stroke-linejoin="round"/>
<path d="M18.5063 5.5C19.3603 6.35396 20.0377 7.36776 20.4999 8.48353C20.9621 9.5993 21.2 10.7952 21.2 12.0029C21.2 13.2106 20.9621 14.4065 20.4999 15.5222C20.0377 16.638 19.3603 17.6518 18.5063 18.5058" stroke="#333C44" stroke-width="1.3" stroke-linecap="round" stroke-linejoin="round"/>
<path d="M8.748 15.2537C7.88599 14.3915 7.40173 13.2221 7.40173 12.0029C7.40173 10.7836 7.88599 9.61429 8.748 8.75201" stroke="#333C44" stroke-width="1.3" stroke-linecap="round" stroke-linejoin="round"/>
<path d="M5.49367 18.5058C4.63967 17.6518 3.96224 16.638 3.50005 15.5222C3.03787 14.4065 2.79999 13.2106 2.79999 12.0029C2.79999 10.7952 3.03787 9.5993 3.50005 8.48353C3.96224 7.36776 4.63967 6.35396 5.49367 5.5" stroke="#333C44" stroke-width="1.3" stroke-linecap="round" stroke-linejoin="round"/>
</svg>
