<svg width="24" height="24" viewBox="0 0 24 24" fill="none" xmlns="http://www.w3.org/2000/svg">
<path d="M6.82554 21.75H17.1746C18.1027 21.75 18.841 20.9864 18.7412 20.1066C18.0966 14.4375 14.2501 14.5312 14.2501 12C14.2501 9.46875 18.1459 9.60938 18.7407 3.89344C18.8344 3.01312 18.1027 2.25 17.1746 2.25H6.82554C5.89742 2.25 5.16757 3.01312 5.25945 3.89344C5.85429 9.60938 9.75007 9.42188 9.75007 12C9.75007 14.5781 5.90351 14.4375 5.25945 20.1066C5.15914 20.9864 5.89742 21.75 6.82554 21.75Z" stroke="#333C44" stroke-width="1.3" stroke-linecap="round" stroke-linejoin="round"/>
<path d="M16.0923 20.25H7.92808C7.19684 20.25 6.99059 19.4062 7.5034 18.8831C8.74465 17.625 11.2501 16.7241 11.2501 15.2812V10.5C11.2501 9.56953 9.46886 8.85938 8.36683 7.35C8.18496 7.10109 8.20324 6.75 8.66543 6.75H15.3559C15.7501 6.75 15.8354 7.09828 15.6559 7.34766C14.5698 8.85938 12.7501 9.56484 12.7501 10.5V15.2812C12.7501 16.7123 15.3615 17.4844 16.5189 18.8845C16.9853 19.4489 16.8221 20.25 16.0923 20.25Z" fill="#333C44"/>
</svg>
