<svg width="24" height="24" viewBox="0 0 24 24" fill="none" xmlns="http://www.w3.org/2000/svg">
<path d="M15.4498 7.39996H15.4623" stroke="#333C44" stroke-width="1.2" stroke-linecap="round" stroke-linejoin="round"/>
<path d="M17.7498 2.79999H6.24981C4.34442 2.79999 2.7998 4.34461 2.7998 6.24999V17.75C2.7998 19.6554 4.34442 21.2 6.24981 21.2H17.7498C19.6552 21.2 21.1998 19.6554 21.1998 17.75V6.24999C21.1998 4.34461 19.6552 2.79999 17.7498 2.79999Z" stroke="#333C44" stroke-width="1.2" stroke-linecap="round" stroke-linejoin="round"/>
<path d="M2.7998 15.4495L7.39981 10.8495C7.92427 10.3448 8.5192 10.0791 9.12481 10.0791C9.73041 10.0791 10.3253 10.3448 10.8498 10.8495L16.5998 16.5995" stroke="#333C44" stroke-width="1.2" stroke-linecap="round" stroke-linejoin="round"/>
<path d="M14.3007 14.2995L15.4507 13.1495C15.9752 12.6448 16.5701 12.3792 17.1757 12.3792C17.7813 12.3792 18.3762 12.6448 18.9007 13.1495L21.2007 15.4495" stroke="#333C44" stroke-width="1.2" stroke-linecap="round" stroke-linejoin="round"/>
</svg>
