<svg width="24" height="24" viewBox="0 0 24 24" fill="none" xmlns="http://www.w3.org/2000/svg">
<path d="M7.49992 14.4619L3.62336 16.2014C2.79836 16.5764 2.79836 17.1905 3.62336 17.5655L10.5609 20.7295C11.3526 21.09 12.6557 21.09 13.4474 20.7295L20.3849 17.5655C21.2099 17.1905 21.2099 16.5764 20.3849 16.2014L16.6377 14.3981M20.3812 6.45234L13.3799 3.26016C12.621 2.91328 11.3788 2.91328 10.6199 3.26016L3.62336 6.45234C2.79836 6.82734 2.79836 7.44094 3.62336 7.81594L10.5609 10.98C11.3526 11.3409 12.6557 11.3409 13.4474 10.98L20.3849 7.81594C21.2062 7.44094 21.2062 6.82687 20.3812 6.45234Z" stroke="#333C44" stroke-width="1.3" stroke-linecap="round" stroke-linejoin="round"/>
<path d="M7.5 9.58502L3.61875 11.3269C2.79375 11.7019 2.79375 12.316 3.61875 12.691L10.5562 15.8545C11.348 16.2155 12.6511 16.2155 13.4428 15.8545L20.3803 12.691C21.21 12.316 21.21 11.7019 20.385 11.3269L16.5 9.58502" stroke="#333C44" stroke-width="1.3" stroke-linecap="round" stroke-linejoin="round"/>
</svg>
