<svg width="20" height="20" viewBox="0 0 20 20" fill="none" xmlns="http://www.w3.org/2000/svg">
<path d="M16.5409 8.54545C16.5409 13.6364 9.99545 18 9.99545 18C9.99545 18 3.45 13.6364 3.45 8.54545C3.45 6.80949 4.13961 5.14463 5.36712 3.91712C6.59463 2.68961 8.25949 2 9.99545 2C11.7314 2 13.3963 2.68961 14.6238 3.91712C15.8513 5.14463 16.5409 6.80949 16.5409 8.54545Z" fill="#6E7C8B"/>
<path d="M9.99578 10.7269C11.2008 10.7269 12.1776 9.75008 12.1776 8.5451C12.1776 7.34011 11.2008 6.36328 9.99578 6.36328C8.7908 6.36328 7.81396 7.34011 7.81396 8.5451C7.81396 9.75008 8.7908 10.7269 9.99578 10.7269Z" fill="white"/>
</svg>
