<svg width="24" height="24" viewBox="0 0 24 24" fill="none" xmlns="http://www.w3.org/2000/svg">
<path d="M18.6248 17.25L12.5657 12.5372C12.3682 12.3836 12.1252 12.3002 11.875 12.3002C11.6248 12.3002 11.3818 12.3836 11.1843 12.5372L5.12476 17.25M14.4998 13.8281L20.8748 9M2.87476 9L9.39038 13.9219" stroke="#333C44" stroke-width="1.3" stroke-linecap="round" stroke-linejoin="round"/>
<path d="M20.7 8.04422L12.5095 4.00172C12.3511 3.92354 12.1767 3.88287 12 3.88287C11.8233 3.88287 11.6489 3.92354 11.4905 4.00172L3.3 8.04422C2.986 8.19806 2.72128 8.43665 2.53574 8.73302C2.3502 9.02939 2.25122 9.37174 2.25 9.7214V18.375C2.25 19.4105 3.10031 20.25 4.14937 20.25H19.8525C20.9016 20.25 21.7519 19.4105 21.7519 18.375V9.7214C21.7505 9.37155 21.6512 9.02906 21.4653 8.73267C21.2795 8.43627 21.0143 8.1978 20.7 8.04422V8.04422Z" stroke="#333C44" stroke-width="1.3" stroke-linecap="round" stroke-linejoin="round"/>
</svg>
