<svg width="24" height="24" viewBox="0 0 24 24" fill="none" xmlns="http://www.w3.org/2000/svg">
<path d="M20.25 18.75L4.5 3" stroke="#333C44" stroke-width="1.3" stroke-miterlimit="10" stroke-linecap="round"/>
<path d="M18.75 11.25V9.77111C18.75 9.36752 18.4397 9.02111 18.0361 9.00096C17.9347 8.99607 17.8333 9.01182 17.7382 9.04726C17.6431 9.0827 17.5561 9.13709 17.4826 9.20712C17.4091 9.27716 17.3506 9.36139 17.3106 9.45471C17.2706 9.54803 17.25 9.64849 17.25 9.75002V11.25C17.2502 11.6173 17.2117 11.9835 17.1352 12.3427C17.1285 12.3734 17.1297 12.4053 17.1384 12.4355C17.1472 12.4657 17.1633 12.4932 17.1853 12.5156L18.2081 13.538C18.2192 13.5491 18.233 13.5572 18.2481 13.5617C18.2632 13.5661 18.2791 13.5666 18.2945 13.5633C18.3098 13.5599 18.3241 13.5528 18.3359 13.5424C18.3478 13.5321 18.3569 13.519 18.3623 13.5042C18.6195 12.7805 18.7506 12.0181 18.75 11.25ZM12 16.5C10.609 16.4956 9.27621 15.941 8.29261 14.9574C7.309 13.9738 6.75445 12.641 6.75 11.25V9.77111C6.75 9.36752 6.43969 9.02111 6.03609 9.00096C5.93469 8.99607 5.83334 9.01182 5.7382 9.04726C5.64307 9.0827 5.55611 9.13709 5.48261 9.20712C5.40911 9.27716 5.3506 9.36139 5.31062 9.45471C5.27063 9.54803 5.25001 9.64849 5.25 9.75002V11.25C5.25 14.7188 7.87969 17.5838 11.25 17.9583V20.25H9.02109C8.6175 20.25 8.27109 20.5603 8.25094 20.9639C8.24605 21.0653 8.26181 21.1667 8.29724 21.2618C8.33268 21.357 8.38707 21.4439 8.4571 21.5174C8.52714 21.5909 8.61137 21.6494 8.70469 21.6894C8.79801 21.7294 8.89848 21.75 9 21.75H14.9789C15.3825 21.75 15.7289 21.4397 15.7491 21.0361C15.754 20.9347 15.7382 20.8334 15.7028 20.7382C15.6673 20.6431 15.6129 20.5561 15.5429 20.4826C15.4729 20.4091 15.3886 20.3506 15.2953 20.3106C15.202 20.2706 15.1015 20.25 15 20.25H12.75V17.9583C13.6037 17.8633 14.4312 17.6052 15.1875 17.198C15.2132 17.184 15.2352 17.1643 15.2519 17.1403C15.2685 17.1163 15.2794 17.0888 15.2835 17.0599C15.2877 17.031 15.285 17.0015 15.2757 16.9738C15.2665 16.9461 15.2509 16.9209 15.2302 16.9003L14.3906 16.0608C14.3634 16.0338 14.3285 16.0158 14.2907 16.0093C14.2529 16.0028 14.214 16.008 14.1792 16.0242C13.4959 16.3388 12.7523 16.5012 12 16.5ZM12 3.75002C12.2969 3.74481 12.5918 3.79945 12.8672 3.91068C13.1425 4.02191 13.3926 4.18745 13.6026 4.39743C13.8126 4.60741 13.9781 4.85752 14.0893 5.13286C14.2006 5.40819 14.2552 5.70311 14.25 6.00002V9.50252C14.2501 9.5521 14.2698 9.59963 14.3048 9.63471L15.5902 10.9219C15.6033 10.935 15.62 10.9438 15.6382 10.9474C15.6564 10.951 15.6752 10.9491 15.6923 10.942C15.7094 10.9348 15.724 10.9228 15.7343 10.9074C15.7445 10.892 15.75 10.8739 15.75 10.8553V6.04267C15.75 3.98439 14.1094 2.27814 12.0534 2.25002C11.4167 2.23833 10.7875 2.3897 10.2257 2.68974C9.66398 2.98978 9.1883 3.42852 8.84391 3.96424C8.82068 4.0003 8.81052 4.04325 8.81512 4.0859C8.81973 4.12855 8.83882 4.16834 8.86922 4.19861L9.78516 5.11455C9.796 5.12535 9.80933 5.13333 9.82397 5.1378C9.83861 5.14226 9.85413 5.14308 9.86916 5.14016C9.88418 5.13725 9.89827 5.1307 9.91018 5.12109C9.9221 5.11147 9.93148 5.09909 9.9375 5.08502C10.1121 4.68448 10.4008 4.34425 10.7676 4.10683C11.1345 3.8694 11.5631 3.7453 12 3.75002Z" fill="#333C44"/>
<path d="M9.71578 11.3859L8.40984 10.0781C8.39671 10.065 8.37999 10.0561 8.36182 10.0526C8.34364 10.049 8.32481 10.0509 8.30771 10.058C8.29061 10.0651 8.276 10.0772 8.26573 10.0926C8.25546 10.108 8.24999 10.1261 8.25 10.1446V11.2031C8.25068 12.2022 8.6457 13.1607 9.34922 13.8702C9.81056 14.35 10.3933 14.6956 11.0355 14.8705C11.6776 15.0454 12.3552 15.043 12.9961 14.8635C13.0119 14.8591 13.0262 14.8505 13.0377 14.8388C13.0492 14.8271 13.0573 14.8125 13.0614 14.7966C13.0655 14.7807 13.0653 14.764 13.0609 14.7482C13.0566 14.7324 13.0481 14.718 13.0364 14.7065L11.8687 13.5388C11.8381 13.5086 11.7981 13.4896 11.7553 13.4849C10.7405 13.3668 9.90468 12.5268 9.76921 11.496C9.76423 11.4544 9.74541 11.4156 9.71578 11.3859Z" fill="#333C44"/>
</svg>
