<svg width="24" height="24" viewBox="0 0 24 24" fill="none" xmlns="http://www.w3.org/2000/svg">
<g clip-path="url(#clip0)">
<path d="M22.8982 17.2778L22.5129 20.7457C22.4096 21.6754 21.6722 22.3924 20.7419 22.2948C18.4163 22.0507 13.8305 20.9014 8.90119 15.972C3.97188 11.0427 2.8218 6.45635 2.57732 4.13025C2.47953 3.19978 3.19658 2.46218 4.12645 2.35886L7.59403 1.97357C8.38669 1.8855 9.1559 2.27677 9.5515 2.96927L10.9706 5.45337C11.4179 6.23641 11.2859 7.22197 10.6482 7.85965L10.0109 8.49693C9.53807 8.96978 9.338 9.65121 9.62427 10.2555C9.96346 10.9716 10.5926 12.0065 11.7289 13.1429C12.8653 14.2793 13.9002 14.9083 14.6163 15.2475C15.2206 15.5338 15.902 15.3337 16.3749 14.8609L17.0122 14.2236C17.6498 13.5859 18.6354 13.4539 19.4184 13.9012L21.9025 15.3203C22.595 15.7159 22.9863 16.4851 22.8982 17.2778Z" stroke="#333C44" stroke-width="1.2" stroke-linecap="round" stroke-linejoin="round"/>
</g>
<defs>
<clipPath id="clip0">
<rect width="24" height="24" fill="white"/>
</clipPath>
</defs>
</svg>
