<svg width="24" height="24" viewBox="0 0 24 24" fill="none" xmlns="http://www.w3.org/2000/svg">
<path d="M18.75 6.93751L17.76 5.78579C16.9206 4.90415 15.9106 4.20252 14.7914 3.7236C13.6722 3.24468 12.4673 2.99849 11.25 3.00001C6.28125 3.00001 2.25 7.03126 2.25 12C2.25 16.9688 6.28125 21 11.25 21C13.1114 20.9999 14.927 20.4229 16.447 19.3484C17.967 18.2739 19.1166 16.7548 19.7377 15" stroke="#333C44" stroke-width="1.3" stroke-miterlimit="10" stroke-linecap="round"/>
<path d="M21.7499 4.56654V9.74998C21.7499 9.94889 21.6709 10.1397 21.5303 10.2803C21.3896 10.421 21.1989 10.5 20.9999 10.5H15.8165C15.1481 10.5 14.8134 9.69232 15.2859 9.21982L20.4698 4.03592C20.9423 3.56248 21.7499 3.8981 21.7499 4.56654Z" fill="#333C44"/>
</svg>
