<svg width="24" height="24" viewBox="0 0 24 24" fill="none" xmlns="http://www.w3.org/2000/svg">
<path fill-rule="evenodd" clip-rule="evenodd" d="M13.5823 19.4188C13.5823 18.5456 12.8744 17.8377 12.0011 17.8377C11.1279 17.8377 10.42 18.5456 10.42 19.4188C10.42 20.2921 11.1279 21 12.0011 21C12.8744 21 13.5823 20.2921 13.5823 19.4188ZM13.5823 12.0001C13.5823 11.1268 12.8744 10.4189 12.0011 10.4189C11.1279 10.4189 10.42 11.1268 10.42 12.0001C10.42 12.8733 11.1279 13.5812 12.0011 13.5812C12.8744 13.5812 13.5823 12.8733 13.5823 12.0001ZM13.5823 4.58115C13.5823 3.70791 12.8744 3 12.0011 3C11.1279 3 10.42 3.70791 10.42 4.58115C10.42 5.4544 11.1279 6.1623 12.0011 6.1623C12.8744 6.1623 13.5823 5.4544 13.5823 4.58115Z" fill="#333C44"/>
</svg>
