<svg width="24" height="24" viewBox="0 0 24 24" fill="none" xmlns="http://www.w3.org/2000/svg">
<path d="M5.35802 14.46L3.81802 10.28H2.52002L4.66502 15.78H6.04002L8.18502 10.28H6.88702L5.35802 14.46ZM11.8303 10.137C11.0493 10.137 10.4883 10.423 10.1253 10.984V10.28H8.93732V15.78H10.1253V12.832C10.1253 11.765 10.6863 11.248 11.5223 11.248C12.2813 11.248 12.7543 11.699 12.7543 12.524V15.78H13.9423V12.403C13.9423 10.995 13.0953 10.137 11.8303 10.137ZM20.7655 8.79496V8.07996H19.5775V8.79496H17.7955V9.60896H19.5775V11.061C19.1265 10.445 18.4885 10.137 17.6525 10.137C16.8935 10.137 16.2555 10.412 15.7165 10.973C15.1775 11.534 14.9135 12.216 14.9135 13.03C14.9135 13.833 15.1775 14.526 15.7165 15.087C16.2555 15.648 16.8935 15.923 17.6525 15.923C18.4885 15.923 19.1265 15.615 19.5775 14.988V15.78H20.7655V9.60896H21.4805V8.79496H20.7655ZM16.5965 14.295C16.2665 13.954 16.1015 13.536 16.1015 13.03C16.1015 12.524 16.2665 12.106 16.5965 11.776C16.9265 11.435 17.3445 11.27 17.8395 11.27C18.3345 11.27 18.7525 11.435 19.0825 11.776C19.4125 12.106 19.5775 12.524 19.5775 13.03C19.5775 13.536 19.4125 13.954 19.0825 14.295C18.7525 14.625 18.3345 14.79 17.8395 14.79C17.3445 14.79 16.9265 14.625 16.5965 14.295Z" fill="#333C44"/>
</svg>
