<svg width="24" height="24" viewBox="0 0 24 24" fill="none" xmlns="http://www.w3.org/2000/svg">
<path d="M21 12C21 7.03125 16.9688 3 12 3C7.03125 3 3 7.03125 3 12C3 16.9688 7.03125 21 12 21C16.9688 21 21 16.9688 21 12Z" stroke="#333C44" stroke-width="1.3" stroke-miterlimit="10"/>
<path d="M11.7311 7.78358L12.0002 13.5L12.2688 7.78358C12.2704 7.74704 12.2646 7.71054 12.2517 7.67632C12.2388 7.6421 12.219 7.61087 12.1936 7.58454C12.1682 7.55822 12.1377 7.53735 12.104 7.52322C12.0702 7.50908 12.0339 7.50198 11.9974 7.50233V7.50233C11.9612 7.50267 11.9255 7.51029 11.8924 7.52474C11.8592 7.53918 11.8294 7.56016 11.8045 7.58641C11.7797 7.61266 11.7603 7.64365 11.7477 7.67753C11.7351 7.7114 11.7295 7.74747 11.7311 7.78358V7.78358Z" stroke="#333C44" stroke-width="1.3" stroke-linecap="round" stroke-linejoin="round"/>
<path d="M12 17.2458C11.8146 17.2458 11.6333 17.1908 11.4792 17.0878C11.325 16.9848 11.2048 16.8384 11.1339 16.667C11.0629 16.4957 11.0443 16.3072 11.0805 16.1254C11.1167 15.9435 11.206 15.7765 11.3371 15.6454C11.4682 15.5143 11.6352 15.425 11.8171 15.3888C11.999 15.3526 12.1875 15.3712 12.3588 15.4422C12.5301 15.5131 12.6765 15.6333 12.7795 15.7874C12.8825 15.9416 12.9375 16.1229 12.9375 16.3083C12.9375 16.5569 12.8387 16.7954 12.6629 16.9712C12.4871 17.147 12.2486 17.2458 12 17.2458Z" fill="#333C44"/>
</svg>
