<svg width="24" height="24" viewBox="0 0 24 24" fill="none" xmlns="http://www.w3.org/2000/svg">
<path d="M11.4884 15.3628V13.6135C14.1636 13.6135 15.4498 14.2449 16.5781 15.4266C16.8312 15.6914 17.2812 15.4885 17.2479 15.1252C16.9925 12.2447 15.6476 9.63658 11.4884 9.63658V7.8872C11.4881 7.81105 11.4655 7.73665 11.4234 7.67319C11.3814 7.60972 11.3216 7.55996 11.2516 7.53005C11.1815 7.50015 11.1043 7.4914 11.0293 7.50488C10.9544 7.51837 10.885 7.55351 10.8298 7.60595L6.87075 11.3438C6.83259 11.3797 6.80218 11.4231 6.78139 11.4712C6.7606 11.5193 6.74988 11.5712 6.74988 11.6236C6.74988 11.676 6.7606 11.7279 6.78139 11.776C6.80218 11.8242 6.83259 11.8675 6.87075 11.9035L10.8279 15.6427C10.883 15.6957 10.9524 15.7313 11.0275 15.7452C11.1027 15.7591 11.1802 15.7506 11.2506 15.7208C11.3209 15.691 11.381 15.6412 11.4232 15.5775C11.4655 15.5139 11.4882 15.4392 11.4884 15.3628Z" fill="#333C44"/>
<path d="M12 3C7.03125 3 3 7.03125 3 12C3 16.9688 7.03125 21 12 21C16.9688 21 21 16.9688 21 12C21 7.03125 16.9688 3 12 3Z" stroke="#333C44" stroke-width="1.3" stroke-miterlimit="10"/>
</svg>
