<svg width="24" height="24" viewBox="0 0 24 24" fill="none" xmlns="http://www.w3.org/2000/svg">
<path d="M6.33707 18.2878C6.46368 18.4329 6.61987 18.5492 6.79516 18.6289C6.97044 18.7086 7.16075 18.7499 7.35331 18.75H18.8968C19.2552 18.7484 19.5985 18.6053 19.8519 18.3519C20.1053 18.0984 20.2484 17.7551 20.25 17.3967V6.60328C20.2484 6.24486 20.1053 5.90158 19.8519 5.64814C19.5985 5.3947 19.2552 5.2516 18.8968 5.25H7.35331C7.16093 5.25018 6.9708 5.29142 6.79563 5.37096C6.62046 5.4505 6.46428 5.56652 6.33753 5.71125L2.17175 12L6.33707 18.2864V18.2878Z" stroke="#333C44" stroke-width="1.3" stroke-linejoin="round"/>
<path d="M15.7814 15.1096L9.68713 9.01544M15.7814 9.01544L9.68713 15.1096L15.7814 9.01544ZM15.7814 15.1096L9.68713 9.01544L15.7814 15.1096ZM15.7814 9.01544L9.68713 15.1096L15.7814 9.01544Z" stroke="#333C44" stroke-width="1.3" stroke-linecap="round" stroke-linejoin="round"/>
</svg>
