<svg width="24" height="24" viewBox="0 0 24 24" fill="none" xmlns="http://www.w3.org/2000/svg">
<path d="M4.69611 9.37995C4.69476 8.49046 4.88447 7.60951 5.25428 6.7879C5.6241 5.96629 6.16673 5.22026 6.85087 4.59281C7.53502 3.96535 8.34716 3.46889 9.24048 3.13204C10.1338 2.79519 11.0906 2.62461 12.0558 2.63013C16.0833 2.65773 19.3048 5.74276 19.3048 9.46468V10.1299C19.3048 13.4877 20.067 15.4361 20.7384 16.501C20.8108 16.6148 20.8492 16.7442 20.85 16.876C20.8508 17.0079 20.8138 17.1376 20.7428 17.2521C20.6718 17.3666 20.5693 17.4618 20.4456 17.5282C20.3219 17.5945 20.1815 17.6296 20.0384 17.6299H3.96168C3.81856 17.6296 3.67808 17.5945 3.55439 17.5281C3.43071 17.4618 3.3282 17.3666 3.25721 17.252C3.18621 17.1375 3.14925 17.0078 3.15004 16.8759C3.15083 16.744 3.18935 16.6146 3.26171 16.5009C3.93346 15.4359 4.6961 13.4875 4.6961 10.1299L4.69611 9.37995Z" stroke="#333C44" stroke-width="1.2" stroke-linecap="round" stroke-linejoin="round"/>
<path d="M8.74469 17.6299V18.3799C8.74469 19.1756 9.08766 19.9387 9.69816 20.5013C10.3087 21.0639 11.1367 21.3799 12.0001 21.3799C12.8634 21.3799 13.6914 21.0639 14.3019 20.5013C14.9124 19.9387 15.2554 19.1756 15.2554 18.3799V17.6299" stroke="#333C44" stroke-width="1.2" stroke-linecap="round" stroke-linejoin="round"/>
</svg>
