<svg width="24" height="24" viewBox="0 0 24 24" fill="none" xmlns="http://www.w3.org/2000/svg">
<path d="M18.4629 8.90624C18.181 9.18633 17.7997 9.34354 17.4023 9.34354C17.0049 9.34354 16.6237 9.18633 16.3418 8.90624L15.0963 7.66077C14.816 7.37891 14.6586 6.99753 14.6586 6.59999C14.6586 6.20244 14.816 5.82107 15.0963 5.53921L17.9154 2.71874C17.921 2.71337 17.9251 2.70671 17.9275 2.69934C17.9299 2.69197 17.9304 2.68413 17.929 2.67652C17.9276 2.66891 17.9243 2.66176 17.9195 2.65571C17.9147 2.64966 17.9084 2.6449 17.9013 2.64186C16.0816 1.86186 13.7224 2.25936 12.2243 3.7467C10.7909 5.16936 10.7093 7.30921 11.2343 9.17671C11.3089 9.44216 11.3087 9.72305 11.2338 9.9884C11.1588 10.2538 11.012 10.4932 10.8096 10.6805L3.00023 17.8125C2.76982 18.0168 2.58363 18.266 2.45311 18.5449C2.32259 18.8238 2.25049 19.1265 2.24125 19.4343C2.23201 19.7421 2.28582 20.0485 2.39938 20.3347C2.51294 20.6209 2.68384 20.8809 2.90158 21.0986C3.11932 21.3164 3.37929 21.4873 3.66551 21.6008C3.95174 21.7144 4.25817 21.7682 4.56596 21.759C4.87374 21.7497 5.17639 21.6776 5.45529 21.5471C5.73419 21.4166 5.98344 21.2304 6.18773 21L13.3999 13.1719C13.5847 12.9728 13.8203 12.8279 14.0812 12.7525C14.3421 12.6771 14.6187 12.6741 14.8812 12.7439C16.7346 13.2403 18.844 13.147 20.2587 11.7506C21.7816 10.2506 22.1102 7.59936 21.3719 6.08202C21.3686 6.07539 21.3638 6.06964 21.3578 6.06525C21.3518 6.06086 21.3449 6.05795 21.3376 6.05676C21.3302 6.05557 21.3227 6.05613 21.3157 6.05841C21.3086 6.06068 21.3022 6.06459 21.2969 6.06983L18.4629 8.90624Z" stroke="#333C44" stroke-width="1.3" stroke-miterlimit="10" stroke-linecap="round"/>
<path d="M4.5 20.25C4.91421 20.25 5.25 19.9142 5.25 19.5C5.25 19.0858 4.91421 18.75 4.5 18.75C4.08579 18.75 3.75 19.0858 3.75 19.5C3.75 19.9142 4.08579 20.25 4.5 20.25Z" fill="#333C44"/>
</svg>
