<svg width="24" height="24" viewBox="0 0 24 24" fill="none" xmlns="http://www.w3.org/2000/svg">
<path d="M15.0667 9.94885L19.7208 7.62228C19.8766 7.54442 20.0498 7.50766 20.2238 7.5155C20.3978 7.52334 20.5669 7.57551 20.715 7.66705C20.8632 7.7586 20.9856 7.8865 21.0704 8.0386C21.1553 8.1907 21.1999 8.36196 21.2 8.53614V15.4505C21.1999 15.6246 21.1553 15.7959 21.0704 15.948C20.9856 16.1001 20.8632 16.228 20.715 16.3195C20.5669 16.4111 20.3978 16.4633 20.2238 16.4711C20.0498 16.4789 19.8766 16.4422 19.7208 16.3643L15.0667 14.0377V9.94885Z" stroke="#333C44" stroke-width="1.2" stroke-linecap="round" stroke-linejoin="round"/>
<path d="M13.022 5.85999H4.84425C3.71513 5.85999 2.7998 6.77531 2.7998 7.90443V16.0822C2.7998 17.2113 3.71513 18.1267 4.84425 18.1267H13.022C14.1511 18.1267 15.0665 17.2113 15.0665 16.0822V7.90443C15.0665 6.77531 14.1511 5.85999 13.022 5.85999Z" stroke="#333C44" stroke-width="1.2" stroke-linecap="round" stroke-linejoin="round"/>
</svg>
