<svg width="24" height="24" viewBox="0 0 24 24" fill="none" xmlns="http://www.w3.org/2000/svg">
<path fill-rule="evenodd" clip-rule="evenodd" d="M19.8537 17.0395C19.9837 17.0659 20.1169 17.0765 20.2505 17.0705C20.5266 17.058 20.795 16.9752 21.0302 16.83C21.2653 16.6847 21.4594 16.4817 21.5941 16.2403C21.7288 15.999 21.7996 15.7272 21.7997 15.4508V15.4504V8.53613V8.53581C21.7996 8.2594 21.7288 7.9876 21.5941 7.74622C21.4594 7.50484 21.2653 7.30188 21.0302 7.1566C20.795 7.01132 20.5266 6.92853 20.2505 6.91609C19.9744 6.90366 19.6996 6.96198 19.4524 7.08554L19.4523 7.08558L15.6665 8.97808V7.90447C15.6665 6.44399 14.4825 5.26003 13.022 5.26003H8.07424L9.27424 6.46003H13.022C13.8198 6.46003 14.4665 7.10673 14.4665 7.90447V9.93999L14.4664 9.94884V11.6522L15.6665 12.8523V10.3197L19.9888 8.15898L19.9889 8.15894C20.0532 8.12681 20.1247 8.11164 20.1965 8.11488C20.2684 8.11811 20.3382 8.13966 20.3994 8.17748C20.4606 8.21529 20.5112 8.26812 20.5462 8.33094C20.5813 8.39376 20.5997 8.4645 20.5997 8.53645V15.4501C20.5997 15.5221 20.5813 15.5928 20.5462 15.6556C20.5112 15.7184 20.4606 15.7713 20.3994 15.8091C20.3382 15.8469 20.2684 15.8684 20.1965 15.8717C20.1247 15.8749 20.0532 15.8598 19.9889 15.8276L19.9888 15.8276L17.2954 14.4812L19.8537 17.0395ZM3.00709 1.59292L2.70711 1.29294L2 2.00005L5.25999 5.26003H4.84425C3.38376 5.26003 2.1998 6.44399 2.1998 7.90447V16.0823C2.1998 17.5427 3.38376 18.7267 4.84425 18.7267H13.022C14.4825 18.7267 15.6665 17.5427 15.6665 16.0823V15.6665L21 21L21.7 20.3L3 1.60001L3.00709 1.59292ZM14.4665 14.4665L6.45998 6.46003H4.84425C4.0465 6.46003 3.3998 7.10673 3.3998 7.90447V16.0823C3.3998 16.88 4.0465 17.5267 4.84425 17.5267H13.022C13.8198 17.5267 14.4665 16.88 14.4665 16.0823V14.4665Z" fill="#333C44"/>
</svg>
