<svg width="24" height="24" viewBox="0 0 24 24" fill="none" xmlns="http://www.w3.org/2000/svg">
<path d="M16.0517 11.167L12.5768 15.3431C12.5064 15.4277 12.4183 15.4958 12.3187 15.5425C12.219 15.5892 12.1103 15.6135 12.0003 15.6135C11.8902 15.6135 11.7815 15.5892 11.6819 15.5425C11.5822 15.4958 11.4941 15.4277 11.4237 15.3431L7.94884 11.167C7.85777 11.0575 7.79977 10.9243 7.78163 10.7831C7.76348 10.6418 7.78593 10.4983 7.84637 10.3693C7.9068 10.2403 8.00271 10.1312 8.12288 10.0547C8.24305 9.97828 8.3825 9.93761 8.52494 9.9375H15.4756C15.618 9.93761 15.7575 9.97828 15.8776 10.0547C15.9978 10.1312 16.0937 10.2403 16.1541 10.3693C16.2146 10.4983 16.237 10.6418 16.2189 10.7831C16.2007 10.9243 16.1427 11.0575 16.0517 11.167Z" fill="#333C44"/>
<path d="M21 12C21 7.03125 16.9688 3 12 3C7.03125 3 3 7.03125 3 12C3 16.9688 7.03125 21 12 21C16.9688 21 21 16.9688 21 12Z" stroke="#333C44" stroke-width="1.3" stroke-miterlimit="10"/>
</svg>
