<svg width="24" height="24" viewBox="0 0 24 24" fill="none" xmlns="http://www.w3.org/2000/svg">
<path d="M16.0514 12.8329L12.5766 8.65681C12.5062 8.57221 12.4181 8.50413 12.3184 8.45741C12.2188 8.41069 12.1101 8.38647 12 8.38647C11.89 8.38647 11.7813 8.41069 11.6816 8.45741C11.582 8.50413 11.4938 8.57221 11.4234 8.65681L7.9486 12.8329C7.85753 12.9424 7.79953 13.0756 7.78138 13.2169C7.76323 13.3581 7.78569 13.5017 7.84612 13.6306C7.90655 13.7596 8.00246 13.8687 8.12263 13.9452C8.2428 14.0216 8.38226 14.0623 8.52469 14.0624H15.4753C15.6178 14.0623 15.7572 14.0216 15.8774 13.9452C15.9976 13.8687 16.0935 13.7596 16.1539 13.6306C16.2143 13.5017 16.2368 13.3581 16.2186 13.2169C16.2005 13.0756 16.1425 12.9424 16.0514 12.8329Z" fill="#333C44"/>
<path d="M21 12C21 7.03125 16.9688 3 12 3C7.03125 3 3 7.03125 3 12C3 16.9688 7.03125 21 12 21C16.9688 21 21 16.9688 21 12Z" stroke="#333C44" stroke-width="1.3" stroke-miterlimit="10"/>
</svg>
