<svg width="24" height="24" viewBox="0 0 24 24" fill="none" xmlns="http://www.w3.org/2000/svg">
<path d="M12.8331 7.9486L8.65706 11.4234C8.57245 11.4938 8.50438 11.582 8.45766 11.6816C8.41094 11.7813 8.38672 11.89 8.38672 12C8.38672 12.1101 8.41094 12.2188 8.45766 12.3184C8.50438 12.4181 8.57245 12.5062 8.65706 12.5766L12.8331 16.0514C12.9427 16.1425 13.0758 16.2005 13.2171 16.2186C13.3584 16.2368 13.5019 16.2143 13.6309 16.1539C13.7599 16.0935 13.869 15.9976 13.9454 15.8774C14.0219 15.7572 14.0626 15.6178 14.0627 15.4753V8.52469C14.0626 8.38226 14.0219 8.2428 13.9454 8.12263C13.869 8.00246 13.7599 7.90655 13.6309 7.84612C13.5019 7.78569 13.3584 7.76323 13.2171 7.78138C13.0758 7.79953 12.9427 7.85753 12.8331 7.9486Z" fill="#333C44"/>
<path d="M21 12C21 7.03125 16.9688 3 12 3C7.03125 3 3 7.03125 3 12C3 16.9688 7.03125 21 12 21C16.9688 21 21 16.9688 21 12Z" stroke="#333C44" stroke-width="1.3" stroke-miterlimit="10"/>
</svg>
