<svg width="24" height="24" viewBox="0 0 24 24" fill="none" xmlns="http://www.w3.org/2000/svg">
<path d="M18 10.5V19.125C18 19.3712 17.9515 19.615 17.8573 19.8425C17.763 20.07 17.6249 20.2767 17.4508 20.4508C17.2767 20.6249 17.07 20.763 16.8425 20.8573C16.615 20.9515 16.3712 21 16.125 21H4.875C4.37772 21 3.90081 20.8025 3.54917 20.4508C3.19754 20.0992 3 19.6223 3 19.125V7.875C3 7.37772 3.19754 6.90081 3.54917 6.54917C3.90081 6.19754 4.37772 6 4.875 6H12.7256" stroke="#333C44" stroke-width="1.3" stroke-linecap="round" stroke-linejoin="round"/>
<path d="M21.5594 2.49605C21.4909 2.42078 21.4079 2.36019 21.3153 2.31793C21.2228 2.27567 21.1226 2.25261 21.0208 2.25016C20.9191 2.2477 20.8179 2.2659 20.7234 2.30365C20.6289 2.3414 20.543 2.39792 20.471 2.4698L19.8912 3.04683C19.8209 3.11715 19.7814 3.21249 19.7814 3.31191C19.7814 3.41132 19.8209 3.50666 19.8912 3.57698L20.4227 4.10761C20.4576 4.14262 20.499 4.17039 20.5446 4.18935C20.5902 4.2083 20.6391 4.21806 20.6885 4.21806C20.7379 4.21806 20.7868 4.2083 20.8324 4.18935C20.878 4.17039 20.9194 4.14262 20.9543 4.10761L21.5196 3.54511C21.8055 3.25964 21.8323 2.79464 21.5594 2.49605ZM18.7188 4.2187L10.2569 12.6656C10.2056 12.7167 10.1683 12.7801 10.1487 12.8498L9.75725 14.0156C9.74788 14.0472 9.74721 14.0808 9.75533 14.1128C9.76345 14.1447 9.78005 14.1739 9.80338 14.1973C9.82671 14.2206 9.8559 14.2372 9.88788 14.2453C9.91986 14.2534 9.95343 14.2528 9.98507 14.2434L11.1499 13.852C11.2196 13.8323 11.283 13.795 11.3341 13.7437L19.781 5.28089C19.8591 5.20191 19.903 5.09528 19.903 4.98417C19.903 4.87306 19.8591 4.76644 19.781 4.68745L19.3146 4.2187C19.2355 4.13984 19.1284 4.09556 19.0167 4.09556C18.905 4.09556 18.7979 4.13984 18.7188 4.2187Z" fill="#333C44"/>
</svg>
