<svg width="24" height="24" viewBox="0 0 24 24" fill="none" xmlns="http://www.w3.org/2000/svg">
<path d="M18 8.25L21.75 12M21.75 12L18 15.75M21.75 12H8.95312M15 8.25V6.375C15 5.87772 14.8025 5.40081 14.4508 5.04917C14.0992 4.69754 13.6223 4.5 13.125 4.5H4.125C3.62772 4.5 3.15081 4.69754 2.79917 5.04917C2.44754 5.40081 2.25 5.87772 2.25 6.375V17.625C2.25 18.1223 2.44754 18.5992 2.79917 18.9508C3.15081 19.3025 3.62772 19.5 4.125 19.5H13.125C13.6223 19.5 14.0992 19.3025 14.4508 18.9508C14.8025 18.5992 15 18.1223 15 17.625V15.75V8.25Z" stroke="#333C44" stroke-width="1.3" stroke-linecap="round" stroke-linejoin="round"/>
</svg>
