<svg width="24" height="24" viewBox="0 0 24 24" fill="none" xmlns="http://www.w3.org/2000/svg">
<path d="M20.2501 21C20.1516 21.0001 20.054 20.9808 19.963 20.9431C19.872 20.9053 19.7894 20.8499 19.7199 20.7801L3.21994 4.28013C3.08522 4.13833 3.01123 3.94952 3.01373 3.75395C3.01624 3.55837 3.09504 3.37152 3.23334 3.23322C3.37164 3.09492 3.5585 3.01611 3.75407 3.01361C3.94964 3.0111 4.13845 3.0851 4.28025 3.21981L20.7803 19.7198C20.8851 19.8247 20.9564 19.9583 20.9854 20.1037C21.0143 20.2492 20.9994 20.3999 20.9427 20.5369C20.8859 20.6739 20.7899 20.791 20.6666 20.8735C20.5433 20.9559 20.3984 20.9999 20.2501 21ZM13.7973 3.95059L12.7623 9.61497C12.7371 9.75247 12.7508 9.89429 12.8019 10.0244C12.853 10.1545 12.9395 10.2678 13.0515 10.3514C13.1865 10.4499 13.3498 10.5021 13.517 10.5H17.9288L16.1303 12.7228C16.1012 12.7588 16.0864 12.8042 16.0888 12.8505C16.0913 12.8967 16.1107 12.9403 16.1434 12.9731L16.9435 13.7733C16.9621 13.7919 16.9844 13.8063 17.0089 13.8158C17.0335 13.8252 17.0597 13.8294 17.086 13.828C17.1122 13.8266 17.1379 13.8198 17.1614 13.8078C17.1848 13.7959 17.2054 13.7792 17.222 13.7587L20.072 10.2356C20.1486 10.1433 20.2025 10.0343 20.2293 9.91742C20.2562 9.80052 20.2553 9.67895 20.2267 9.56247C20.1851 9.40141 20.0911 9.25875 19.9596 9.15693C19.8281 9.0551 19.6664 8.99989 19.5001 8.99997H14.3996L15.722 1.76388C15.7243 1.74981 15.7267 1.73622 15.7281 1.72216C15.7519 1.53452 15.7136 1.34424 15.619 1.18045C15.5244 1.01667 15.3787 0.88841 15.2043 0.81533C15.0298 0.74225 14.8362 0.728377 14.6531 0.775836C14.47 0.823295 14.3076 0.92947 14.1906 1.07809L9.85088 6.44341C9.82166 6.47943 9.80683 6.525 9.80925 6.57132C9.81168 6.61764 9.83118 6.66141 9.864 6.69419L10.6642 7.49388C10.6827 7.51248 10.705 7.52697 10.7296 7.53641C10.7541 7.54584 10.7804 7.55001 10.8066 7.54864C10.8329 7.54727 10.8585 7.54039 10.882 7.52845C10.9054 7.51652 10.9261 7.49978 10.9426 7.47934L13.7973 3.95059ZM10.2085 20.0423L11.2398 14.384C11.2648 14.2465 11.2509 14.1047 11.1996 13.9747C11.1484 13.8447 11.0618 13.7315 10.9496 13.6481C10.8146 13.55 10.6515 13.498 10.4846 13.5H6.07369L7.87181 11.2772C7.9009 11.2412 7.91565 11.1957 7.91322 11.1495C7.9108 11.1033 7.89138 11.0596 7.85869 11.0268L7.05853 10.2267C7.03996 10.2082 7.01771 10.1937 6.99321 10.1843C6.96871 10.175 6.94252 10.1708 6.91632 10.1722C6.89012 10.1736 6.8645 10.1804 6.84112 10.1923C6.81773 10.2042 6.7971 10.2209 6.78056 10.2412L3.92822 13.7643C3.85162 13.8566 3.79773 13.9656 3.77086 14.0825C3.744 14.1994 3.74491 14.321 3.77353 14.4375C3.81512 14.5985 3.90906 14.7412 4.04059 14.843C4.17211 14.9448 4.33376 15.0001 4.50009 15H9.6015L8.28478 22.2356V22.2408C8.25229 22.4293 8.28351 22.6233 8.37353 22.7921C8.46355 22.961 8.60724 23.095 8.78191 23.1731C8.95659 23.2512 9.15229 23.2689 9.33814 23.2234C9.52398 23.1779 9.68938 23.0718 9.80822 22.9218L14.1493 17.5565C14.1785 17.5205 14.1934 17.4749 14.1909 17.4286C14.1885 17.3823 14.169 17.3385 14.1362 17.3058L13.336 16.5061C13.3175 16.4875 13.2952 16.473 13.2706 16.4635C13.2461 16.4541 13.2198 16.4499 13.1936 16.4513C13.1673 16.4527 13.1416 16.4595 13.1182 16.4715C13.0948 16.4834 13.0741 16.5002 13.0576 16.5206L10.2085 20.0423Z" fill="#333C44"/>
</svg>
