<svg width="24" height="24" viewBox="0 0 24 24" fill="none" xmlns="http://www.w3.org/2000/svg">
<path d="M12 4.875V7.49999H14.625C15.1442 7.49999 15.6517 7.34604 16.0834 7.0576C16.5151 6.76916 16.8515 6.3592 17.0502 5.87954C17.2489 5.39988 17.3009 4.87209 17.1996 4.36289C17.0983 3.85369 16.8483 3.38596 16.4812 3.01885C16.114 2.65173 15.6463 2.40173 15.1371 2.30044C14.6279 2.19915 14.1001 2.25114 13.6205 2.44982C13.1408 2.6485 12.7308 2.98495 12.4424 3.41663C12.154 3.84831 12 4.35582 12 4.875V4.875ZM12 4.875V7.49999H9.375C8.85583 7.49999 8.34831 7.34604 7.91663 7.0576C7.48495 6.76916 7.1485 6.3592 6.94982 5.87954C6.75114 5.39988 6.69915 4.87209 6.80044 4.36289C6.90173 3.85369 7.15173 3.38596 7.51885 3.01885C7.88596 2.65173 8.35369 2.40173 8.86289 2.30044C9.37209 2.19915 9.89989 2.25114 10.3795 2.44982C10.8592 2.6485 11.2692 2.98495 11.5576 3.41663C11.846 3.84831 12 4.35582 12 4.875V4.875Z" stroke="#333C44" stroke-width="1.3" stroke-miterlimit="10" stroke-linecap="round"/>
<path d="M19.5 7.5H4.5C3.67157 7.5 3 8.17157 3 9V11.25C3 12.0784 3.67157 12.75 4.5 12.75H19.5C20.3284 12.75 21 12.0784 21 11.25V9C21 8.17157 20.3284 7.5 19.5 7.5Z" stroke="#333C44" stroke-width="1.3" stroke-linecap="round" stroke-linejoin="round"/>
<path d="M12 7.5V21.75M19.5 12.75V19.5C19.5 20.0967 19.2629 20.669 18.841 21.091C18.419 21.5129 17.8467 21.75 17.25 21.75H6.75C6.15326 21.75 5.58097 21.5129 5.15901 21.091C4.73705 20.669 4.5 20.0967 4.5 19.5V12.75H19.5Z" stroke="#333C44" stroke-width="1.3" stroke-linecap="round" stroke-linejoin="round"/>
</svg>
