<svg width="24" height="24" viewBox="0 0 24 24" fill="none" xmlns="http://www.w3.org/2000/svg">
<path d="M11.9998 21.2C17.0808 21.2 21.1998 17.081 21.1998 12C21.1998 6.91897 17.0808 2.79999 11.9998 2.79999C6.91878 2.79999 2.7998 6.91897 2.7998 12C2.7998 17.081 6.91878 21.2 11.9998 21.2Z" stroke="#333C44" stroke-width="1.5" stroke-linecap="round" stroke-linejoin="round"/>
<path d="M11.9998 17.1112V17.1223" stroke="#333C44" stroke-width="1.5" stroke-linecap="round" stroke-linejoin="round"/>
<path d="M11.9994 13.5336C11.9806 13.2017 12.0701 12.8728 12.2545 12.5962C12.4388 12.3197 12.7081 12.1105 13.0216 12.0002C13.4058 11.8533 13.7507 11.6192 14.0291 11.3163C14.3075 11.0135 14.5117 10.6501 14.6258 10.2549C14.7399 9.85967 14.7607 9.44335 14.6865 9.03873C14.6124 8.63411 14.4453 8.25222 14.1985 7.92313C13.9517 7.59404 13.6319 7.32673 13.2642 7.14226C12.8965 6.95778 12.491 6.86117 12.0797 6.86003C11.6683 6.85889 11.2623 6.95325 10.8936 7.13568C10.5249 7.31811 10.2036 7.58364 9.95496 7.91136" stroke="#333C44" stroke-width="1.5" stroke-linecap="round" stroke-linejoin="round"/>
</svg>
