<svg width="24" height="24" viewBox="0 0 24 24" fill="none" xmlns="http://www.w3.org/2000/svg">
<path d="M6.1925 10.13H4.3175C3.79974 10.13 3.38 10.5497 3.38 11.0675V18.1925C3.38 18.7103 3.79974 19.13 4.3175 19.13H6.1925C6.71027 19.13 7.13 18.7103 7.13 18.1925V11.0675C7.13 10.5497 6.71027 10.13 6.1925 10.13Z" stroke="#333C44" stroke-width="1.3" stroke-linecap="round" stroke-linejoin="round"/>
<path d="M12.9425 7.88H11.0675C10.5497 7.88 10.13 8.29974 10.13 8.8175V18.1925C10.13 18.7103 10.5497 19.13 11.0675 19.13H12.9425C13.4603 19.13 13.88 18.7103 13.88 18.1925V8.8175C13.88 8.29974 13.4603 7.88 12.9425 7.88Z" stroke="#333C44" stroke-width="1.3" stroke-linecap="round" stroke-linejoin="round"/>
<path d="M19.6756 4.88H17.8006C17.2829 4.88 16.8631 5.29974 16.8631 5.8175V18.1925C16.8631 18.7103 17.2829 19.13 17.8006 19.13H19.6756C20.1934 19.13 20.6131 18.7103 20.6131 18.1925V5.8175C20.6131 5.29974 20.1934 4.88 19.6756 4.88Z" stroke="#333C44" stroke-width="1.3" stroke-linecap="round" stroke-linejoin="round"/>
</svg>
