<svg width="24" height="24" viewBox="0 0 24 24" fill="none" xmlns="http://www.w3.org/2000/svg">
<path d="M2.7998 14.1636C2.7998 12.5068 4.14295 11.1636 5.7998 11.1636H5.8539C6.66762 11.1636 7.40022 10.6706 7.70666 9.91681L10.3124 3.50703C10.4862 3.07956 10.9016 2.79999 11.363 2.79999V2.79999C12.7158 2.79999 13.7679 3.97658 13.6172 5.32097L13.3367 7.82381C13.237 8.71284 13.9327 9.4909 14.8273 9.4909H17.5225C19.4215 9.4909 20.8427 11.233 20.4614 13.0933L19.2912 18.8024C19.0052 20.198 17.777 21.2 16.3523 21.2H5.7998C4.14295 21.2 2.7998 19.8568 2.7998 18.2V14.1636Z" stroke="#333C44" stroke-width="1.2"/>
<path d="M7.59949 10.3269V21.1996" stroke="#333C44" stroke-width="1.2"/>
</svg>
