<svg width="16" height="16" viewBox="0 0 16 16" fill="none" xmlns="http://www.w3.org/2000/svg">
<path d="M11.5113 7.45175H4.69636C3.9436 7.45175 3.33337 8.06198 3.33337 8.81473V12.9037C3.33337 13.6564 3.9436 14.2667 4.69636 14.2667H11.5113C12.264 14.2667 12.8742 13.6564 12.8742 12.9037V8.81473C12.8742 8.06198 12.264 7.45175 11.5113 7.45175Z" stroke="#596168" stroke-linecap="round" stroke-linejoin="round"/>
<path d="M8.10398 11.5406C8.48035 11.5406 8.78547 11.2355 8.78547 10.8591C8.78547 10.4828 8.48035 10.1776 8.10398 10.1776C7.7276 10.1776 7.42249 10.4828 7.42249 10.8591C7.42249 11.2355 7.7276 11.5406 8.10398 11.5406Z" stroke="#596168" stroke-linecap="round" stroke-linejoin="round"/>
<path d="M5.37793 7.45193V4.72596C5.37793 4.00299 5.66513 3.30963 6.17635 2.79842C6.68756 2.2872 7.38092 2 8.10389 2C8.82686 2 9.52022 2.2872 10.0314 2.79842C10.5427 3.30963 10.8299 4.00299 10.8299 4.72596V7.45193" stroke="#596168" stroke-linecap="round" stroke-linejoin="round"/>
</svg>
