<svg width="20" height="20" viewBox="0 0 20 20" fill="none" xmlns="http://www.w3.org/2000/svg">
<mask id="path-1-inside-1" fill="white">
<path fill-rule="evenodd" clip-rule="evenodd" d="M2.84705 14.7613C2.09111 13.5065 1.66671 11.572 1.66671 9.99935C1.66671 5.39697 5.39758 1.66602 9.99997 1.66602C14.6024 1.66602 18.3334 5.39697 18.3334 9.99935C18.3334 14.6017 14.6024 18.3327 9.99997 18.3327C8.34878 18.3327 6.52361 17.9696 5.22957 17.1422"/>
<path fill-rule="evenodd" clip-rule="evenodd" d="M2.84705 14.7613L1.66671 18.3327L5.22957 17.1422"/>
</mask>
<path d="M2.84705 14.7613L3.98644 15.1378L4.15946 14.6143L3.87493 14.142L2.84705 14.7613ZM5.22957 17.1422L5.87598 16.1312L5.39299 15.8224L4.84927 16.0041L5.22957 17.1422ZM1.66671 18.3327L0.527321 17.9561C0.384813 18.3873 0.497925 18.862 0.819569 19.1826C1.14121 19.5032 1.61628 19.6147 2.047 19.4708L1.66671 18.3327ZM3.87493 14.142C3.26038 13.1219 2.86671 11.4172 2.86671 9.99935H0.466705C0.466705 11.7267 0.921841 13.8911 1.81918 15.3805L3.87493 14.142ZM2.86671 9.99935C2.86671 6.0597 6.06033 2.86602 9.99997 2.86602V0.466016C4.73482 0.466016 0.466705 4.73424 0.466705 9.99935H2.86671ZM9.99997 2.86602C13.9396 2.86602 17.1334 6.05972 17.1334 9.99935H19.5334C19.5334 4.73421 15.2651 0.466016 9.99997 0.466016V2.86602ZM17.1334 9.99935C17.1334 13.939 13.9396 17.1327 9.99997 17.1327V19.5327C15.2651 19.5327 19.5334 15.2645 19.5334 9.99935H17.1334ZM9.99997 17.1327C8.48136 17.1327 6.90924 16.7918 5.87598 16.1312L4.58315 18.1532C6.13799 19.1473 8.2162 19.5327 9.99997 19.5327V17.1327ZM1.70767 14.3847L0.527321 17.9561L2.80609 18.7092L3.98644 15.1378L1.70767 14.3847ZM2.047 19.4708L5.60986 18.2804L4.84927 16.0041L1.28641 17.1945L2.047 19.4708Z" fill="#333C44" mask="url(#path-1-inside-1)"/>
<path d="M10 14.2598V14.269" stroke="#333C44" stroke-width="1.5" stroke-linecap="round" stroke-linejoin="round"/>
<path d="M9.9996 11.2781C9.98392 11.0016 10.0585 10.7274 10.2122 10.497C10.3658 10.2665 10.5902 10.0922 10.8515 10.0003C11.1716 9.87788 11.459 9.68278 11.691 9.43039C11.923 9.17801 12.0932 8.87522 12.1883 8.54586C12.2834 8.21651 12.3007 7.86958 12.2389 7.53239C12.1771 7.19521 12.0379 6.87696 11.8322 6.60272C11.6265 6.32848 11.36 6.10573 11.0536 5.952C10.7472 5.79827 10.4093 5.71776 10.0665 5.71681C9.72369 5.71585 9.38535 5.79449 9.07811 5.94652C8.77086 6.09855 8.5031 6.31982 8.2959 6.59291" stroke="#333C44" stroke-width="1.5" stroke-linecap="round" stroke-linejoin="round"/>
</svg>
