<svg width="24" height="24" viewBox="0 0 24 24" fill="none" xmlns="http://www.w3.org/2000/svg">
<path d="M9 21H15M18 9.75V11.25C18 14.55 15.3 17.25 12 17.25M12 17.25C8.7 17.25 6 14.55 6 11.25V9.75M12 17.25V21" stroke="#333C44" stroke-width="1.3" stroke-linecap="round" stroke-linejoin="round"/>
<path d="M11.9999 2.99992C11.6054 2.99793 11.2144 3.07417 10.8495 3.22423C10.4846 3.37429 10.1531 3.59519 9.87417 3.87417C9.59519 4.15314 9.37429 4.48465 9.22423 4.84952C9.07417 5.2144 8.99793 5.6054 8.99992 5.99992V11.2031C8.99992 12.8531 10.3593 14.2499 11.9999 14.2499C13.6406 14.2499 14.9999 12.8906 14.9999 11.2031V5.99992C14.9999 4.31242 13.6874 2.99992 11.9999 2.99992Z" stroke="#333C44" stroke-width="1.3" stroke-linecap="round" stroke-linejoin="round"/>
</svg>
