<svg width="24" height="24" viewBox="0 0 24 24" fill="none" xmlns="http://www.w3.org/2000/svg">
<path d="M12 13.5009C12.8284 13.5009 13.5 12.8293 13.5 12.0009C13.5 11.1725 12.8284 10.5009 12 10.5009C11.1716 10.5009 10.5 11.1725 10.5 12.0009C10.5 12.8293 11.1716 13.5009 12 13.5009Z" fill="#333C44"/>
<path d="M8.63684 9.01172C7.90512 9.83534 7.50097 10.8988 7.50097 12.0005C7.50097 13.1022 7.90512 14.1656 8.63684 14.9892M15.3643 14.9892C16.0961 14.1656 16.5002 13.1022 16.5002 12.0005C16.5002 10.8988 16.0961 9.83534 15.3643 9.01172M6.24762 6.6225C4.88417 8.08118 4.12572 10.0033 4.12572 12C4.12572 13.9967 4.88417 15.9188 6.24762 17.3775M17.7526 17.3775C19.1161 15.9188 19.8745 13.9967 19.8745 12C19.8745 10.0033 19.1161 8.08118 17.7526 6.6225M20.3907 19.5C22.2323 17.4358 23.2501 14.7663 23.2501 12C23.2501 9.23374 22.2323 6.56418 20.3907 4.5M3.6095 4.5C1.76793 6.56418 0.750183 9.23374 0.750183 12C0.750183 14.7663 1.76793 17.4358 3.6095 19.5" stroke="#333C44" stroke-width="1.3" stroke-linecap="round" stroke-linejoin="round"/>
</svg>
