<svg width="24" height="24" viewBox="0 0 24 24" fill="none" xmlns="http://www.w3.org/2000/svg">
<path d="M12.2948 9.01453C11.6793 8.95374 11.06 9.08469 10.5218 9.38945C9.98355 9.69421 9.55267 10.1579 9.28815 10.717C9.02362 11.2761 8.93837 11.9033 9.04408 12.5127C9.14978 13.1221 9.44126 13.684 9.87862 14.1213C10.316 14.5587 10.8778 14.8502 11.4873 14.9559C12.0967 15.0616 12.7239 14.9763 13.283 14.7118C13.8421 14.4473 14.3057 14.0164 14.6105 13.4782C14.9153 12.94 15.0462 12.3207 14.9854 11.7052C14.9161 11.0151 14.6104 10.3703 14.12 9.87995C13.6296 9.38958 12.9848 9.08384 12.2948 9.01453V9.01453ZM19.5182 12C19.5163 12.3261 19.4924 12.6517 19.4465 12.9745L21.5657 14.6367C21.658 14.7132 21.7202 14.8199 21.7412 14.9379C21.7622 15.056 21.7408 15.1776 21.6806 15.2812L19.6757 18.75C19.6148 18.8527 19.5197 18.9305 19.407 18.9699C19.2943 19.0093 19.1714 19.0076 19.0598 18.9652L16.9551 18.1177C16.839 18.0714 16.7133 18.0547 16.5892 18.0691C16.4651 18.0834 16.3465 18.1283 16.244 18.1997C15.9228 18.4209 15.5853 18.6174 15.2343 18.7875C15.124 18.8411 15.0286 18.9211 14.9565 19.0203C14.8843 19.1196 14.8378 19.2351 14.8209 19.3566L14.5054 21.6014C14.4847 21.72 14.4234 21.8276 14.3321 21.906C14.2408 21.9844 14.1251 22.0287 14.0048 22.0312H9.99511C9.87677 22.0292 9.76265 21.9869 9.67157 21.9113C9.58048 21.8357 9.51786 21.7314 9.49401 21.6155L9.17901 19.3739C9.16132 19.2511 9.11355 19.1345 9.03995 19.0346C8.96635 18.9346 8.8692 18.8544 8.75714 18.8011C8.40661 18.6319 8.07022 18.4349 7.7512 18.2119C7.64906 18.1408 7.53084 18.0963 7.40719 18.0823C7.28354 18.0683 7.15836 18.0853 7.04292 18.1317L4.9387 18.9788C4.82719 19.0212 4.70427 19.023 4.59159 18.9837C4.47892 18.9444 4.38372 18.8666 4.32276 18.7641L2.31792 15.2953C2.25764 15.1917 2.2361 15.07 2.25713 14.952C2.27816 14.834 2.3404 14.7272 2.43276 14.6508L4.22386 13.2445C4.32198 13.1666 4.3991 13.0655 4.44822 12.9502C4.49733 12.835 4.51689 12.7093 4.50511 12.5845C4.48823 12.3891 4.47792 12.1941 4.47792 11.9986C4.47792 11.8031 4.48776 11.6109 4.50511 11.4197C4.5156 11.2957 4.49509 11.1711 4.44542 11.057C4.39575 10.9429 4.31848 10.843 4.22057 10.7662L2.43042 9.36C2.33956 9.28317 2.27863 9.17681 2.25832 9.05957C2.23801 8.94232 2.2596 8.82167 2.31932 8.71875L4.32417 5.25C4.38505 5.14734 4.48022 5.06946 4.5929 5.0301C4.70558 4.99074 4.82854 4.99242 4.94011 5.03484L7.04479 5.88234C7.16086 5.92856 7.28657 5.94525 7.41068 5.93094C7.53478 5.91662 7.65339 5.87174 7.75589 5.80031C8.0771 5.57912 8.41463 5.38262 8.76557 5.2125C8.87591 5.15887 8.97134 5.07891 9.04344 4.97966C9.11555 4.88042 9.16211 4.76494 9.17901 4.64344L9.49448 2.39859C9.5152 2.28004 9.57645 2.17236 9.66776 2.09396C9.75907 2.01555 9.87478 1.9713 9.99511 1.96875H14.0048C14.1231 1.9708 14.2372 2.01309 14.3283 2.08867C14.4194 2.16425 14.482 2.2686 14.5059 2.38453L14.8209 4.62609C14.8386 4.74894 14.8863 4.86551 14.9599 4.96544C15.0335 5.06537 15.1307 5.14557 15.2428 5.19891C15.5933 5.3681 15.9297 5.56514 16.2487 5.78813C16.3508 5.85919 16.4691 5.90373 16.5927 5.91772C16.7164 5.93172 16.8415 5.91473 16.957 5.86828L19.0612 5.02125C19.1727 4.97879 19.2956 4.97704 19.4083 5.01631C19.521 5.05558 19.6162 5.13336 19.6771 5.23594L21.682 8.70469C21.7423 8.80832 21.7638 8.92999 21.7428 9.04802C21.7217 9.16604 21.6595 9.27278 21.5671 9.34922L19.776 10.7555C19.6775 10.8331 19.5999 10.9342 19.5504 11.0494C19.5009 11.1647 19.4809 11.2905 19.4924 11.4155C19.5079 11.6095 19.5182 11.8045 19.5182 12Z" stroke="#333C44" stroke-width="1.3" stroke-linecap="round" stroke-linejoin="round"/>
</svg>
