<svg width="24" height="24" viewBox="0 0 24 24" fill="none" xmlns="http://www.w3.org/2000/svg">
<path fill-rule="evenodd" clip-rule="evenodd" d="M3.89508 13.8901C4.9417 13.8901 5.79016 13.0417 5.79016 11.9951C5.79016 10.9484 4.9417 10.1 3.89508 10.1C2.84846 10.1 2 10.9484 2 11.9951C2 13.0417 2.84846 13.8901 3.89508 13.8901ZM12 13.8901C13.0466 13.8901 13.8951 13.0417 13.8951 11.9951C13.8951 10.9484 13.0466 10.1 12 10.1C10.9534 10.1 10.1049 10.9484 10.1049 11.9951C10.1049 13.0417 10.9534 13.8901 12 13.8901ZM20.1049 13.8901C21.1515 13.8901 22 13.0417 22 11.9951C22 10.9484 21.1515 10.1 20.1049 10.1C19.0583 10.1 18.2098 10.9484 18.2098 11.9951C18.2098 13.0417 19.0583 13.8901 20.1049 13.8901Z" fill="#333C44"/>
</svg>
