<svg width="24" height="24" viewBox="0 0 24 24" fill="none" xmlns="http://www.w3.org/2000/svg">
<path d="M19.1531 7.34625H4.84537C3.66008 7.34625 2.69922 8.30712 2.69922 9.49241V18.077C2.69922 19.2623 3.66008 20.2232 4.84537 20.2232H19.1531C20.3384 20.2232 21.2992 19.2623 21.2992 18.077V9.49241C21.2992 8.30712 20.3384 7.34625 19.1531 7.34625Z" stroke="#333C44" stroke-width="1.2" stroke-linejoin="round"/>
<path d="M18.9456 7.34622V6.00488C18.9455 5.67589 18.8728 5.35099 18.7327 5.05334C18.5925 4.75569 18.3884 4.49264 18.1349 4.28296C17.8814 4.07327 17.5848 3.92212 17.2661 3.84029C16.9475 3.75845 16.6147 3.74795 16.2915 3.80954L4.5163 5.81932C4.00494 5.91677 3.54362 6.18962 3.2119 6.5908C2.88018 6.99197 2.69887 7.49634 2.69922 8.0169V10.2078" stroke="#333C44" stroke-width="1.2" stroke-linejoin="round"/>
<path d="M17.0069 14.6155C16.8426 14.6155 16.682 14.5668 16.5454 14.4755C16.4088 14.3842 16.3023 14.2544 16.2394 14.1026C16.1765 13.9508 16.1601 13.7838 16.1921 13.6226C16.2242 13.4615 16.3033 13.3135 16.4195 13.1973C16.5357 13.0811 16.6837 13.002 16.8449 12.9699C17.006 12.9379 17.1731 12.9543 17.3249 13.0172C17.4767 13.0801 17.6064 13.1865 17.6977 13.3232C17.789 13.4598 17.8377 13.6204 17.8377 13.7847C17.8377 14.0051 17.7502 14.2164 17.5944 14.3722C17.4386 14.528 17.2273 14.6155 17.0069 14.6155Z" fill="#333C44" stroke="#333C44" stroke-width="1.2"/>
</svg>
