<svg width="88" height="88" viewBox="0 0 88 88" fill="none" xmlns="http://www.w3.org/2000/svg">
<g clip-path="url(#clip0)">
<path d="M35.8728 68.3796C40.361 63.8914 40.361 56.6147 35.8729 52.1266C31.3847 47.6384 24.108 47.6384 19.6198 52.1266L3.36474 68.3817C-1.12341 72.8698 -1.12341 80.1465 3.36474 84.6347C7.85289 89.1228 15.1296 89.1228 19.6178 84.6347L35.8728 68.3796Z" fill="#4F5EAA"/>
<path d="M84.6332 19.62C89.1213 15.1318 89.1213 7.85511 84.6332 3.36696C80.145 -1.12119 72.8683 -1.12119 68.3802 3.36696L52.1251 19.6221C47.6369 24.1102 47.6369 31.3869 52.1251 35.8751C56.6132 40.3632 63.8899 40.3632 68.3781 35.8751L84.6332 19.62Z" fill="#5EC7CF"/>
<path d="M19.6208 35.8732C24.109 40.3614 31.3857 40.3614 35.8738 35.8732C40.362 31.3851 40.362 24.1084 35.8738 19.6202L19.6187 3.36513C15.1306 -1.12302 7.85387 -1.12302 3.36572 3.36513C-1.12243 7.85328 -1.12243 15.13 3.36572 19.6182L19.6208 35.8732Z" fill="#F05367"/>
<path d="M68.3826 84.6328C72.8708 89.121 80.1475 89.121 84.6356 84.6328C89.1238 80.1447 89.1238 72.868 84.6356 68.3798L68.3805 52.1247C63.8924 47.6366 56.6157 47.6366 52.1275 52.1247C47.6394 56.6129 47.6394 63.8896 52.1275 68.3778L68.3826 84.6328Z" fill="#F5E12F"/>
</g>
<defs>
<clipPath id="clip0">
<rect width="88" height="88" fill="white"/>
</clipPath>
</defs>
</svg>
