<svg width="24" height="24" viewBox="0 0 24 24" fill="none" xmlns="http://www.w3.org/2000/svg">
<path fill-rule="evenodd" clip-rule="evenodd" d="M15.7505 2C15.9294 3.21478 15.4349 4.40487 14.7826 5.24687C14.0848 6.15003 12.8819 6.84856 11.7165 6.8121C11.5038 5.64906 12.0485 4.45074 12.7113 3.64519C13.4383 2.75615 14.6844 2.07409 15.7505 2ZM19.2516 19.0988C19.8525 18.178 20.0769 17.7135 20.5433 16.6739C17.1511 15.3839 16.6075 10.5612 19.9647 8.71021C18.9407 7.42604 17.5017 6.68165 16.1434 6.68165C15.1647 6.68165 14.4941 6.93706 13.8845 7.16925C13.3765 7.36274 12.9108 7.54011 12.3444 7.54011C11.7323 7.54011 11.1903 7.34577 10.6227 7.14228C9.99908 6.91866 9.3446 6.684 8.53249 6.684C7.00819 6.684 5.3857 7.61538 4.35704 9.20765C2.91106 11.4502 3.15771 15.6661 5.5026 19.2576C6.34073 20.5429 7.46057 21.987 8.92525 21.9999C9.533 22.006 9.93742 21.8246 10.3751 21.6283C10.876 21.4036 11.4204 21.1594 12.3631 21.1544C13.3113 21.1487 13.8472 21.3959 14.3415 21.6239C14.7679 21.8205 15.1633 22.0029 15.7659 21.9964C17.2317 21.9846 18.4135 20.3841 19.2516 19.0988Z" fill="#0B0B0A"/>
</svg>
