<svg width="24" height="24" viewBox="0 0 24 24" fill="none" xmlns="http://www.w3.org/2000/svg">
<path d="M20.147 19.0439H3.85297C2.82974 19.0439 2 18.2141 2 17.1909V6.81293C2 5.7897 2.82974 4.95996 3.85297 4.95996H20.147C21.1703 4.95996 22 5.7897 22 6.81293V17.1909C22 18.2141 21.1703 19.0439 20.147 19.0439Z" fill="#3A66AD"/>
<path d="M11.1507 14.208H10.1089L10.76 10.2069H11.8019L11.1507 14.208Z" fill="white"/>
<path d="M9.23263 10.2069L8.23918 12.9591L8.12197 12.3662L7.77159 10.5672C7.77159 10.5672 7.72942 10.2069 7.27734 10.2069H5.63585L5.61662 10.2745C5.61662 10.2745 6.11893 10.3787 6.7062 10.7322L7.61098 14.208H8.69622L10.3538 10.2069H9.23263Z" fill="white"/>
<path d="M17.4265 14.208H18.3827L17.5487 10.2069H16.7109C16.3239 10.2069 16.2303 10.5052 16.2303 10.5052L14.6768 14.208H15.7627L15.9797 13.6139H17.3037L17.4265 14.208ZM16.2805 12.7929L16.8281 11.2953L17.1363 12.7929H16.2805Z" fill="white"/>
<path d="M14.7587 11.1688L14.9075 10.3093C14.9075 10.3093 14.4486 10.135 13.9705 10.135C13.4533 10.135 12.226 10.3614 12.226 11.4596C12.226 12.4934 13.6666 12.5064 13.6666 13.049C13.6666 13.5916 12.3742 13.4949 11.9476 13.1526L11.7926 14.0505C11.7926 14.0505 12.2577 14.2769 12.9683 14.2769C13.679 14.2769 14.7518 13.9085 14.7518 12.907C14.7518 11.8664 13.2982 11.7697 13.2982 11.3176C13.2982 10.8655 14.3128 10.9232 14.7587 11.1688Z" fill="white"/>
<path d="M8.12181 12.3663L7.77143 10.5673C7.77143 10.5673 7.72926 10.207 7.27718 10.207H5.63568L5.61646 10.2746C5.61646 10.2746 6.40589 10.4383 7.16245 11.051C7.88615 11.6364 8.12181 12.3663 8.12181 12.3663Z" fill="#E3A340"/>
</svg>
