<svg width="24" height="24" viewBox="0 0 24 24" fill="none" xmlns="http://www.w3.org/2000/svg">
<path d="M4.44658 15.0594L2.49976 12.6259C2.20758 12.2607 2.21418 11.7458 2.56526 11.4368C3.70882 10.4303 6.6539 8.43003 11.9993 8.43003C17.3447 8.43003 20.2905 10.4303 21.4345 11.4368C21.7857 11.7458 21.7924 12.2608 21.5001 12.6261L19.5534 15.0594C19.3043 15.3708 18.894 15.5044 18.5093 15.3995L15.9508 14.7014C15.5158 14.5827 15.2141 14.1875 15.2141 13.7366L15.2141 12.5364C15.2141 12.202 15.0451 11.891 14.7356 11.7643C14.2279 11.5564 13.316 11.287 12 11.287C10.684 11.287 9.7721 11.5564 9.26436 11.7643C8.95494 11.891 8.78594 12.202 8.78594 12.5364L8.78594 13.7366C8.78594 14.1875 8.48417 14.5827 8.04917 14.7014L5.49068 15.3995C5.10598 15.5044 4.69569 15.3708 4.44658 15.0594Z" fill="#333C44"/>
</svg>
