<svg width="20" height="20" viewBox="0 0 20 20" fill="none" xmlns="http://www.w3.org/2000/svg">
<path d="M12.0005 6.33496C11.6325 6.33496 11.3338 6.03629 11.3338 5.66829V4.66829H8.66713V5.66829C8.66713 6.03629 8.36847 6.33496 8.00047 6.33496C7.63247 6.33496 7.3338 6.03629 7.3338 5.66829V4.66829C7.3338 3.93296 7.9318 3.33496 8.66713 3.33496H11.3338C12.0691 3.33496 12.6671 3.93296 12.6671 4.66829V5.66829C12.6671 6.03629 12.3685 6.33496 12.0005 6.33496Z" fill="#333C44"/>
<path d="M10.4733 12.255C10.3533 12.3016 10.18 12.335 10 12.335C9.82 12.335 9.64667 12.3016 9.48667 12.2416L2 9.74829V14.835C2 15.8483 2.82 16.6683 3.83333 16.6683H16.1667C17.18 16.6683 18 15.8483 18 14.835V9.74829L10.4733 12.255Z" fill="#333C44"/>
<path d="M18 7.16842V8.69508L10.16 11.3084C10.1067 11.3284 10.0533 11.3351 10 11.3351C9.94667 11.3351 9.89333 11.3284 9.84 11.3084L2 8.69508V7.16842C2 6.15508 2.82 5.33508 3.83333 5.33508H16.1667C17.18 5.33508 18 6.15508 18 7.16842Z" fill="#333C44"/>
</svg>
