<svg width="24" height="24" viewBox="0 0 24 24" fill="none" xmlns="http://www.w3.org/2000/svg">
<path d="M12 2C6.48578 2 2 6.48578 2 12C2 17.5142 6.48578 22 12 22C17.5142 22 22 17.5142 22 12C22 6.48578 17.5142 2 12 2Z" fill="#5960FF"/>
<path d="M17.0684 9.88086L11.6516 15.2974C11.4891 15.4599 11.2758 15.5417 11.0625 15.5417C10.8492 15.5417 10.6359 15.4599 10.4734 15.2974L7.76508 12.5891C7.43915 12.2634 7.43915 11.7366 7.76508 11.4109C8.09085 11.0849 8.61743 11.0849 8.94336 11.4109L11.0625 13.53L15.8901 8.70258C16.2159 8.37665 16.7424 8.37665 17.0684 8.70258C17.3941 9.02835 17.3941 9.55493 17.0684 9.88086Z" fill="#FAFAFA"/>
</svg>
