<svg width="24" height="24" viewBox="0 0 24 24" fill="none" xmlns="http://www.w3.org/2000/svg">
<path d="M12 5.86667C13.8778 5.86667 15.1445 6.67778 15.8667 7.35556L18.6889 4.6C16.9556 2.98889 14.7 2 12 2C8.08893 2 4.71116 4.24444 3.06671 7.51111L6.30004 10.0222C7.11116 7.61111 9.3556 5.86667 12 5.86667Z" fill="#EA4335"/>
<path d="M21.5999 12.2222C21.5999 11.4 21.5332 10.8 21.3888 10.1777H11.9999V13.8888H17.511C17.3999 14.8111 16.7999 16.2 15.4666 17.1333L18.6221 19.5777C20.511 17.8333 21.5999 15.2666 21.5999 12.2222Z" fill="#4285F4"/>
<path d="M6.31111 13.9777C6.1 13.3554 5.97778 12.6888 5.97778 11.9999C5.97778 11.311 6.1 10.6443 6.3 10.0221L3.06667 7.51099C2.38889 8.86654 2 10.3888 2 11.9999C2 13.611 2.38889 15.1332 3.06667 16.4888L6.31111 13.9777Z" fill="#FBBC05"/>
<path d="M12.0002 22C14.7002 22 16.9669 21.1111 18.6224 19.5778L15.4669 17.1333C14.6224 17.7222 13.4891 18.1333 12.0002 18.1333C9.35575 18.1333 7.11131 16.3889 6.31131 13.9778L3.07797 16.4889C4.72242 19.7556 8.08908 22 12.0002 22Z" fill="#34A853"/>
</svg>
