<svg width="24" height="24" viewBox="0 0 24 24" fill="none" xmlns="http://www.w3.org/2000/svg">
<path d="M11.9999 11.567C13.6808 11.567 15.0434 10.2043 15.0434 8.52347C15.0434 6.8426 13.6808 5.47998 11.9999 5.47998C10.319 5.47998 8.95642 6.8426 8.95642 8.52347C8.95642 10.2043 10.319 11.567 11.9999 11.567Z" fill="#333C44"/>
<path d="M18.0871 13.3061C19.2877 13.3061 20.261 12.3328 20.261 11.1322C20.261 9.93154 19.2877 8.95825 18.0871 8.95825C16.8865 8.95825 15.9132 9.93154 15.9132 11.1322C15.9132 12.3328 16.8865 13.3061 18.0871 13.3061Z" fill="#333C44"/>
<path d="M5.97468 13.3061C7.17529 13.3061 8.14858 12.3328 8.14858 11.1322C8.14858 9.93154 7.17529 8.95825 5.97468 8.95825C4.77407 8.95825 3.80078 9.93154 3.80078 11.1322C3.80078 12.3328 4.77407 13.3061 5.97468 13.3061Z" fill="#333C44"/>
<path d="M12 12.4365C8.88343 12.4365 6.34778 14.9722 6.34778 18.0887C6.34778 18.3287 6.54257 18.5235 6.78257 18.5235H17.2173C17.4573 18.5235 17.6521 18.3287 17.6521 18.0887C17.6521 14.9722 15.1165 12.4365 12 12.4365Z" fill="#333C44"/>
<path d="M6.72434 14.2696C6.45825 14.213 6.18781 14.1757 5.91304 14.1757C3.75565 14.1757 2 15.9313 2 18.0887C2 18.3287 2.1948 18.5235 2.4348 18.5235H5.55825C5.50955 18.387 5.47824 18.2418 5.47824 18.0887C5.47824 16.6617 5.94434 15.3444 6.72434 14.2696Z" fill="#333C44"/>
<path d="M18.0869 14.1757C17.8122 14.1757 17.5417 14.213 17.2756 14.2696C18.0556 15.3444 18.5217 16.6617 18.5217 18.0887C18.5217 18.2418 18.4904 18.3869 18.4417 18.5235H21.5652C21.8052 18.5235 22 18.3287 22 18.0887C22 15.9313 20.2443 14.1757 18.0869 14.1757Z" fill="#333C44"/>
</svg>
