<svg width="77" height="25" viewBox="0 0 77 25" fill="none" xmlns="http://www.w3.org/2000/svg">
<path d="M0.652653 19.9789C-0.215435 19.1109 -0.215435 17.7026 0.652653 16.8345L3.79706 13.6901C4.66515 12.822 6.07338 12.822 6.94147 13.6901C7.80956 14.5582 7.80956 15.9664 6.94147 16.8345L3.79706 19.9789C2.92683 20.847 1.52074 20.847 0.652653 19.9789Z" fill="#444CFF"/>
<path d="M10.0837 10.5454C9.2156 9.67726 9.2156 8.26903 10.0837 7.40095L13.2281 4.25653C14.0962 3.38845 15.5044 3.38845 16.3725 4.25653C17.2406 5.12462 17.2406 6.53286 16.3725 7.40095L13.2281 10.5454C12.36 11.4134 10.9518 11.4134 10.0837 10.5454Z" fill="#1CE6E3"/>
<path d="M0.652674 4.25653C1.52076 3.38845 2.92899 3.38845 3.79708 4.25653L6.94149 7.40095C7.80958 8.26903 7.80958 9.67726 6.94149 10.5454C6.0734 11.4134 4.66517 11.4134 3.79708 10.5454L0.652674 7.40095C-0.217558 6.53286 -0.217558 5.12462 0.652674 4.25653Z" fill="#FF5166"/>
<path d="M10.0837 13.6901C10.9518 12.822 12.36 12.822 13.2281 13.6901L16.3725 16.8345C17.2406 17.7026 17.2406 19.1109 16.3725 19.9789C15.5044 20.847 14.0962 20.847 13.2281 19.9789L10.0837 16.8345C9.2156 15.9664 9.2156 14.5582 10.0837 13.6901Z" fill="#F5E131"/>
<path d="M26.8044 16.2364V22.686C26.8044 23.3269 26.2857 23.9442 25.6469 23.9978C24.8603 24.0642 24.2237 23.4662 24.2237 22.7267V11.0536V11.0279C24.2237 7.43121 27.1688 4.48828 30.7633 4.48828C34.5207 4.48828 37.5194 7.65627 37.2922 11.433C37.095 14.7017 34.4414 17.3574 31.1727 17.5568C29.5351 17.6532 27.9983 17.1474 26.8044 16.2364ZM26.8044 11.0193V11.0515C26.8044 13.3278 28.7699 15.1733 31.117 14.9718C32.926 14.8153 34.4221 13.4007 34.6836 11.6045C35.0973 8.75156 32.3773 6.29305 29.4151 7.29189C27.8332 7.82346 26.8044 9.35172 26.8044 11.0193Z" fill="#222222"/>
<path d="M39.1635 16.138V5.68237C39.1635 4.94075 39.8001 4.34487 40.5846 4.41132C41.2233 4.4649 41.742 5.08007 41.742 5.7231V16.1852C41.742 17.019 40.994 17.6491 40.1581 17.4519C39.5643 17.3105 39.1635 16.7489 39.1635 16.138Z" fill="#222222"/>
<path d="M58.5721 16.138V5.68237C58.5721 4.94075 59.2087 4.34487 59.9932 4.41132C60.6319 4.4649 61.1506 5.08007 61.1506 5.7231V16.1852C61.1506 17.019 60.4026 17.6491 59.5666 17.4519C58.9729 17.3105 58.5721 16.7489 58.5721 16.138Z" fill="#222222"/>
<path d="M76.0902 10.9146C76.0902 11.6176 75.5179 12.1921 74.787 12.1921H65.7975C66.3441 13.7568 67.8038 14.8757 69.5506 14.8757C70.1508 14.8757 71.2182 14.8242 72.47 14.0161C73.0702 13.626 73.8782 13.9904 74.189 14.6163C74.502 15.2679 74.1633 15.9452 73.5631 16.3353C71.8441 17.4821 70.5152 17.4563 69.5506 17.4563C65.9283 17.4563 63.0089 14.5113 63.0089 10.9146C63.0089 7.29221 65.9283 4.375 69.5506 4.375C72.7036 4.375 76.0902 6.66847 76.0902 10.9146ZM65.7975 9.61139H73.3274C72.7808 7.78734 71.1132 6.95354 69.5485 6.95354C67.8037 6.95354 66.3441 8.07455 65.7975 9.61139Z" fill="#222222"/>
<path d="M56.33 17.1227C55.8177 17.635 54.9882 17.635 54.4759 17.1227L43.986 6.6328C43.4737 6.12053 43.4737 5.29102 43.986 4.77874C44.4983 4.26646 45.3278 4.26646 45.8401 4.77874L56.33 15.2687C56.8401 15.781 56.8401 16.6105 56.33 17.1227Z" fill="#222222"/>
<path d="M44.0247 17.0825C43.5124 16.5702 43.5124 15.7407 44.0247 15.2284L54.4332 4.8178C54.9455 4.30552 55.775 4.30552 56.2873 4.8178C56.7995 5.33008 56.7995 6.15959 56.2873 6.67187L45.8766 17.0804C45.3665 17.5948 44.537 17.5948 44.0247 17.0825Z" fill="#222222"/>
<path d="M39.5256 2.2163C39.2898 1.98267 39.1334 1.64186 39.1334 1.3032C39.1334 0.96454 39.2898 0.625883 39.5256 0.390105C39.7614 0.156472 40.1 0 40.4387 0C40.7774 0 41.116 0.156472 41.3518 0.390105C41.5876 0.625883 41.7162 0.96454 41.7162 1.3032C41.7162 1.64186 41.5854 1.98053 41.3518 2.2163C41.1182 2.45208 40.7774 2.58069 40.4387 2.58069C40.1 2.58069 39.7614 2.44994 39.5256 2.2163Z" fill="#222222"/>
<path d="M58.9494 2.2163C58.7136 1.98267 58.5571 1.64186 58.5571 1.3032C58.5571 0.96454 58.7136 0.625883 58.9494 0.390105C59.183 0.156472 59.5238 0 59.8625 0C60.2011 0 60.5398 0.156472 60.7756 0.390105C61.0092 0.625883 61.14 0.96454 61.14 1.3032C61.14 1.64186 61.0092 1.98053 60.7756 2.2163C60.5419 2.45208 60.2011 2.58069 59.8625 2.58069C59.5238 2.58069 59.183 2.44994 58.9494 2.2163Z" fill="#222222"/>
</svg>
