<svg width="24" height="24" viewBox="0 0 24 24" fill="none" xmlns="http://www.w3.org/2000/svg">
<path d="M22 12C22 17.5229 17.5229 22 12 22C9.08857 22 6.46776 20.7559 4.64041 18.7702C4.16041 18.249 3.73551 17.6763 3.37388 17.062C2.50082 15.5771 2 13.8469 2 12C2 6.47714 6.47714 2 12 2C13.8473 2 15.5775 2.50082 17.062 3.37429C17.6763 3.73551 18.2486 4.16041 18.7698 4.64082C20.7555 6.46735 22 9.08857 22 12Z" fill="#F0CD00"/>
<path d="M22 12C22 17.3984 17.7229 21.7976 12.3723 21.9931C7.02168 21.7976 2.74454 17.3984 2.74454 12C2.74454 6.60165 7.02168 2.20247 12.3723 2.00696C17.7229 2.20247 22 6.60165 22 12Z" fill="#FFDE50"/>
<path d="M18.7698 4.6408L4.64043 18.7702C4.16043 18.249 3.73553 17.6763 3.3739 17.062L17.0621 3.37427C17.6763 3.73549 18.2486 4.16039 18.7698 4.6408Z" fill="#FFEA94"/>
<path d="M21.3102 8.34414L8.3437 21.3107C7.42574 20.9499 6.5739 20.4572 5.81186 19.856L19.8559 5.81189C20.4572 6.57393 20.9498 7.42577 21.3102 8.34414Z" fill="#FFEA94"/>
<path d="M19.7706 12C19.7706 16.2914 16.2914 19.7706 12 19.7706C10.5053 19.7706 9.1094 19.3486 7.9245 18.6171C7.40818 18.2988 6.93226 17.9212 6.50532 17.4943C6.19144 17.1808 5.90409 16.84 5.64736 16.4763C5.29389 15.9755 4.99797 15.431 4.76981 14.8526C4.43185 13.9975 4.24165 13.0677 4.23022 12.0955C4.2294 12.0637 4.2294 12.0318 4.2294 12C4.2294 7.70856 7.70818 4.22937 12 4.22937C12.0318 4.22937 12.0641 4.22937 12.0959 4.23019C13.0682 4.24162 13.9976 4.43223 14.8527 4.76978C15.431 4.99835 15.9755 5.29386 16.4763 5.64733C16.84 5.90447 17.1804 6.19141 17.4943 6.50529C17.9212 6.93182 18.2988 7.40815 18.6172 7.92447C19.3486 9.10937 19.7706 10.5053 19.7706 12Z" fill="#FAA300"/>
<path d="M17.4943 6.50529L6.50532 17.4943C6.19144 17.1808 5.90409 16.84 5.64736 16.4763C5.29389 15.9755 4.99797 15.431 4.76981 14.8526C4.43185 13.9975 4.24165 13.0677 4.23022 12.0955C4.2294 12.0637 4.2294 12.0318 4.2294 12C4.2294 7.70856 7.70818 4.22937 12 4.22937C12.0319 4.22937 12.0641 4.22937 12.0959 4.23019C13.0682 4.24162 13.9976 4.43223 14.8527 4.76978C15.431 4.99835 15.9755 5.29386 16.4763 5.64733C16.84 5.90447 17.1804 6.19141 17.4943 6.50529Z" fill="#FFBD00"/>
<path d="M19.7704 12C19.7704 16.2914 16.2913 19.7706 11.9998 19.7706C11.8525 19.7706 11.7064 19.7665 11.5611 19.7584C15.6484 19.531 18.8925 16.1441 18.8925 12C18.8925 7.8559 15.6484 4.46896 11.5611 4.24161C11.7064 4.23345 11.8525 4.22937 11.9998 4.22937C16.2913 4.22937 19.7704 7.70856 19.7704 12Z" fill="#F68E00"/>
<path d="M12.5843 12.8985C13.1062 12.2832 14.0192 12.2183 14.6229 12.7535L16.8096 14.6921C17.4133 15.2273 17.4796 16.1604 16.9577 16.7756C16.4359 17.3908 15.5229 17.4557 14.9192 16.9205L12.7325 14.982C12.1288 14.4468 12.0624 13.5137 12.5843 12.8985Z" fill="#F68E00"/>
<path d="M7.01974 17.0244C6.42725 16.5033 6.36931 15.6001 6.89038 15.0076L8.77782 12.8614C9.29889 12.2689 10.2021 12.211 10.7946 12.7321C11.3871 13.2531 11.445 14.1564 10.924 14.7489L9.03654 16.895C8.51409 17.4876 7.61224 17.5454 7.01974 17.0244Z" fill="#F68E00"/>
<path d="M12.3346 11.1603C11.7325 10.6228 11.6728 9.69218 12.2013 9.08222L14.1157 6.87281C14.6442 6.26285 15.5613 6.20403 16.1634 6.74147C16.7655 7.27891 16.8252 8.20958 16.2967 8.81954L14.3823 11.0289C13.8538 11.6389 12.9367 11.6977 12.3346 11.1603Z" fill="#F68E00"/>
<path d="M6.37933 7.59153C6.89963 6.98701 7.80285 6.92907 8.39612 7.46217L10.5451 9.39315C11.1383 9.92625 11.1975 10.849 10.6772 11.4535C10.1569 12.058 9.25369 12.116 8.66043 11.5829L6.51148 9.65187C5.91684 9.11887 5.85766 8.19614 6.37933 7.59153Z" fill="#F68E00"/>
<path d="M7.44577 17.2164C6.85327 16.6953 6.79534 15.7921 7.31641 15.1996L9.20384 13.0534C9.72491 12.4609 10.6281 12.403 11.2206 12.9241C11.8131 13.4451 11.8711 14.3484 11.35 14.9409L9.46256 17.087C8.94012 17.6796 8.03827 17.7375 7.44577 17.2164Z" fill="#FFEA94"/>
<path d="M12.7943 11.0904C12.2018 10.5693 12.1438 9.66611 12.6649 9.07361L14.5524 6.92746C15.0734 6.33496 15.9767 6.27703 16.5692 6.7981C17.1616 7.31917 17.2196 8.2224 16.6985 8.8149L14.8111 10.961C14.29 11.5535 13.3868 11.6115 12.7943 11.0904Z" fill="#FFEA94"/>
<path d="M6.79898 7.44469C7.32005 6.8522 8.22328 6.79426 8.81577 7.31533L10.9619 9.20277C11.5544 9.72384 11.6124 10.6271 11.0913 11.2196C10.5702 11.8121 9.66699 11.87 9.07449 11.3489L6.92834 9.46149C6.33447 8.9405 6.27653 8.03728 6.79898 7.44469Z" fill="#FFEA94"/>
<path d="M12.9236 12.7947C13.4447 12.2022 14.3479 12.1443 14.9404 12.6654L17.0866 14.5528C17.6791 15.0739 17.737 15.9771 17.2159 16.5696C16.6949 17.1621 15.7916 17.22 15.1991 16.6989L13.053 14.8115C12.4605 14.2904 12.4025 13.3872 12.9236 12.7947Z" fill="#FFEA94"/>
</svg>
