<svg width="24" height="24" viewBox="0 0 24 24" fill="none" xmlns="http://www.w3.org/2000/svg">
<path d="M18.712 12.8635C18.0674 12.1108 17.7745 11.4586 17.7745 10.3504V9.97363C17.7745 8.52957 17.4422 7.59915 16.7196 6.66873C15.6058 5.22378 13.7309 4.35291 11.8955 4.35291H11.8175C10.0206 4.35291 8.20446 5.1838 7.07145 6.57009C6.30939 7.51917 5.93845 8.48958 5.93845 9.97363V10.3504C5.93845 11.4586 5.66484 12.1108 5.001 12.8635C4.51254 13.4181 4.35645 14.1308 4.35645 14.9021C4.35645 15.6743 4.60988 16.4057 5.11851 17.0002C5.78235 17.7129 6.7198 18.1679 7.67742 18.247C9.06386 18.4052 10.4503 18.4647 11.8569 18.4647C13.2627 18.4647 14.6491 18.3652 16.0364 18.247C16.9932 18.1679 17.9306 17.7129 18.5944 17.0002C19.1022 16.4057 19.3565 15.6743 19.3565 14.9021C19.3565 14.1308 19.2004 13.4181 18.712 12.8635Z" fill="#333C44"/>
<path opacity="0.6" d="M13.6286 19.5544C13.1875 19.4602 10.4997 19.4602 10.0586 19.5544C9.68152 19.6415 9.27374 19.8441 9.27374 20.2884C9.29567 20.7123 9.54384 21.0864 9.8876 21.3237L9.88672 21.3246C10.3313 21.6712 10.8531 21.8916 11.3994 21.9707C11.6906 22.0106 11.987 22.0089 12.2887 21.9707C12.8341 21.8916 13.3559 21.6712 13.8005 21.3246L13.7996 21.3237C14.1434 21.0864 14.3916 20.7123 14.4135 20.2884C14.4135 19.8441 14.0057 19.6415 13.6286 19.5544Z" fill="#333C44"/>
<path d="M16.1093 2.0173C15.5657 1.91689 15.0665 2.26377 14.963 2.79436C14.8595 3.32496 15.2075 3.843 15.7363 3.94684C17.3283 4.25721 18.5576 5.48956 18.8692 7.08706V7.0882C18.9579 7.54805 19.3627 7.88238 19.8289 7.88238C19.8915 7.88238 19.954 7.87667 20.0177 7.86526C20.5465 7.75914 20.8945 7.24224 20.791 6.7105C20.3259 4.32453 18.4893 2.48171 16.1093 2.0173Z" fill="#333C44"/>
<path d="M7.89433 2.0173C8.43956 1.91689 8.9403 2.26377 9.0441 2.79436C9.1479 3.32496 8.79886 3.843 8.26846 3.94684C6.67155 4.25721 5.43851 5.48956 5.12597 7.08706V7.0882C5.037 7.54805 4.63093 7.88238 4.16326 7.88238C4.10053 7.88238 4.03779 7.87667 3.97392 7.86526C3.44352 7.75914 3.09448 7.24224 3.19828 6.7105C3.6648 4.32453 5.50695 2.48171 7.89433 2.0173Z" fill="#333C44"/>
</svg>
