<svg width="24" height="24" viewBox="0 0 24 24" fill="none" xmlns="http://www.w3.org/2000/svg">
<path d="M13.2837 15.865C12.9278 16.0833 12.4719 16.2036 12.0001 16.2036C11.5283 16.2036 11.0724 16.0834 10.7164 15.865L4.90486 12.3008C4.90486 12.3008 4.38031 11.9792 4.38031 12.7076C4.38031 13.5347 4.38031 16.0161 4.38031 16.0161C4.38031 16.0492 4.38031 16.2153 4.38031 16.2668C4.38031 18.1417 7.79174 20.1629 11.9999 20.1629C16.2081 20.1629 19.6196 18.1417 19.6196 16.2668C19.6196 16.2153 19.6196 16.0492 19.6196 16.0161C19.6196 16.0161 19.6196 13.3842 19.6196 12.5069C19.6196 11.9223 19.2466 12.208 19.2466 12.208L13.2837 15.865Z" fill="#333C44"/>
<path d="M21.6651 9.46561C22.1116 9.19176 22.1116 8.74361 21.6651 8.4697L12.8119 4.04255C12.3653 3.76869 11.6346 3.76869 11.1881 4.04255L2.33491 8.4697C1.88836 8.74356 1.88836 9.19171 2.33491 9.46561L11.1881 14.8953C11.6346 15.1692 12.3653 15.1692 12.8119 14.8953" fill="#333C44"/>
<path d="M21.2989 17.5138C21.2989 16.0146 21.2989 11.5171 21.2989 11.5171C21.2989 11.5171 21.303 11.2331 21.1345 11.3269C20.9993 11.4021 20.6679 11.5868 20.5511 11.6884C20.4163 11.8055 20.4467 12.0685 20.4467 12.0685C20.4467 12.0685 20.4467 16.1525 20.4467 17.5138C20.4467 17.5911 20.3803 17.628 20.3486 17.6466C20.0426 17.8265 19.8368 18.1586 19.8368 18.5394C19.8368 19.1115 20.3006 19.5754 20.8728 19.5754C21.445 19.5754 21.9088 19.1115 21.9088 18.5394C21.9088 18.1572 21.7015 17.824 21.3935 17.6446C21.3629 17.6267 21.2989 17.591 21.2989 17.5138Z" fill="#333C44"/>
</svg>
